/* XPM */
static char *e7c09ce06a514bf48a46ed8b3d07b850asJH2BLejrKdGsgV[] = {
/* columns rows colors chars-per-pixel */
"64 64 235 2 ",
"   c #000001",
".  c #01050B",
"X  c #090C0E",
"o  c #140E04",
"O  c #070C12",
"+  c #0C1011",
"@  c #191A1A",
"#  c #261E17",
"$  c #1E1E21",
"%  c #1E2122",
"&  c #252323",
"*  c #2D2424",
"=  c #362928",
"-  c #3A3535",
";  c #493A0C",
":  c #4F3B2E",
">  c #403230",
",  c #574611",
"<  c #795C06",
"1  c #4B462C",
"2  c #754639",
"3  c #715834",
"4  c #796632",
"5  c #484949",
"6  c #4F5353",
"7  c #555453",
"8  c #79684F",
"9  c #646464",
"0  c #696A6A",
"q  c #746C6B",
"w  c #757575",
"e  c #74787B",
"r  c #7F7F7F",
"t  c #DF1904",
"y  c #E30E01",
"u  c #E21301",
"i  c #EA1B02",
"p  c #DE2807",
"a  c #D0361B",
"s  c #E32D02",
"d  c #E52807",
"f  c #E43402",
"g  c #E63902",
"h  c #E13312",
"j  c #D53C35",
"k  c #D53C37",
"l  c #8F700F",
"z  c #BA7F0D",
"x  c #A8781E",
"c  c #93542F",
"v  c #B34D31",
"b  c #94772F",
"n  c #9C693F",
"m  c #987937",
"M  c #AD742F",
"N  c #A87C28",
"B  c #CC441D",
"V  c #D94717",
"C  c #E64807",
"Z  c #EB5702",
"A  c #E45C12",
"S  c #C27E19",
"D  c #E86806",
"F  c #F26A00",
"G  c #EB7601",
"H  c #EC7D00",
"J  c #ED7E0D",
"K  c #F17705",
"L  c #E36816",
"P  c #E77810",
"I  c #F37D15",
"U  c #CC5628",
"Y  c #CD413A",
"T  c #D6433A",
"R  c #C87C2B",
"E  c #C16B36",
"W  c #84594B",
"Q  c #A95148",
"!  c #876747",
"~  c #946844",
"^  c #8D7446",
"/  c #9F6A5C",
"(  c #A67641",
")  c #AC714E",
"_  c #84746B",
"`  c #8A7771",
"'  c #827E75",
"]  c #807F7E",
"[  c #BA880D",
"{  c #BB8F18",
"}  c #9B8029",
"|  c #AA8829",
" . c #B8882A",
".. c #AE9529",
"X. c #B89627",
"o. c #A58334",
"O. c #B68C38",
"+. c #AD9736",
"@. c #B19B36",
"#. c #BBA62A",
"$. c #B8AB3B",
"%. c #BCB232",
"&. c #DA8B07",
"*. c #CB9708",
"=. c #CD8F11",
"-. c #D69B12",
";. c #EC8302",
":. c #ED8A02",
">. c #F38401",
",. c #F38C00",
"<. c #FC8E00",
"1. c #EE9301",
"2. c #EC9E0C",
"3. c #F39600",
"4. c #FD9401",
"5. c #F39D01",
"6. c #FD9B00",
"7. c #FF960A",
"8. c #F58519",
"9. c #E59116",
"0. c #FF9A16",
"q. c #C9A40B",
"w. c #D8A404",
"e. c #D6B108",
"r. c #CBB117",
"t. c #D6BB18",
"y. c #E9A904",
"u. c #FDA300",
"i. c #F4A801",
"p. c #FEAB00",
"a. c #E9B508",
"s. c #F4B304",
"d. c #FDB301",
"f. c #F7BB02",
"g. c #FEBB02",
"h. c #EEAC15",
"j. c #F2A516",
"k. c #E7B919",
"l. c #C98A26",
"z. c #DA8A23",
"x. c #C39528",
"c. c #E79B24",
"v. c #EA952B",
"b. c #C5A726",
"n. c #C9B627",
"m. c #D3B627",
"M. c #C3B83D",
"N. c #FEA228",
"B. c #FEA535",
"V. c #DDC408",
"C. c #D8C417",
"Z. c #D4C916",
"A. c #E7C706",
"S. c #F3C402",
"D. c #FCC601",
"F. c #F3CC00",
"G. c #FDCC01",
"H. c #F8C30C",
"J. c #E7D80A",
"K. c #F6D501",
"L. c #FDD301",
"P. c #F6DB01",
"I. c #FCDB01",
"U. c #F4D50C",
"Y. c #F1CD19",
"T. c #ECE50A",
"R. c #FDE401",
"E. c #FDEB01",
"W. c #F4E70A",
"Q. c #FEF300",
"!. c #FFFC00",
"~. c #E8E615",
"^. c #FCF414",
"/. c #CDC72B",
"(. c #D5CE2E",
"). c #EBD02C",
"_. c #E8E622",
"`. c #F7F721",
"'. c #9A8947",
"]. c #9C875D",
"[. c #9B9653",
"{. c #A58547",
"}. c #B08F4F",
"|. c #A59A48",
" X c #B9915B",
".X c #AEA248",
"XX c #B3A545",
"oX c #B4B04E",
"OX c #A8A257",
"+X c #89856A",
"@X c #948A68",
"#X c #9A9466",
"$X c #878274",
"%X c #82817E",
"&X c #93897E",
"*X c #9A9571",
"=X c #AB966B",
"-X c #AD8E7B",
";X c #ACA86A",
":X c #ADA874",
">X c #DE9E4A",
",X c #C79D52",
"<X c #C1BC48",
"1X c #F6AA48",
"2X c #C8A06A",
"3X c #FEBB66",
"4X c #E7B371",
"5X c #CAC440",
"6X c #7D7E83",
"7X c #7F8183",
"8X c #818181",
"9X c #858585",
"0X c #868584",
"qX c #878786",
"wX c #8A8A8A",
"eX c #8C8C8C",
"rX c #8D8D8D",
"tX c #9B8C87",
"yX c #959186",
"uX c #8D8E92",
"iX c #8F9192",
"pX c #919292",
"aX c #929292",
"sX c #969696",
"dX c #999898",
"fX c #B29884",
"gX c #B4AE84",
"hX c #ABA699",
"jX c #B1B4B2",
"kX c #D3B690",
"lX c #F0C388",
"zX c #BCC3C5",
"xX c #C5C8C9",
"cX c #D2D6D3",
"vX c #FFFFFF",
/* pixels */
"8X8X8X8X8X8X8X8X8X8X8X8X8X8X8X8X8X8X8X8X8X8X8X8X8X8X8X8X8X8X8X8X8X8X8X8X8X8X8X8X8X8X8X8X8X8X8X8X8X8X8X8X8X8X8X8X8X8X8X8X8X8X8X8X",
"8X8X8X8X8X8X8X8X8X8X8X8X8X8X8X8X8X8X8X8X8X8X8X8X8X8X8X8X8X8X8X8X8X8X8X8X8X8X8X8X8X8X8X8X8X8X8X8X8X8X8X8X8X8X8X8X8X8X8X8X8X8X8X8X",
"8X8X8X8X8X8X8X8X8X8X8X8X8X8X8X8X8X8X8X8X8X8X8X8X8X8X8X8X8X8X8X8X8X8X8X8X8X8X8X8X8X8X8X8X8X8X8X8X8X8X8X8X8X8X8X8X8X8X8X8X8X8X8X8X",
"8X8X8X8X8X8X8X8X8X8X8X8X8X8X8X8X8X8X8X8X8X8X8X8X8X8X8X8X8X8X8X8X8X8X8X8X8X8X8X8X8X8X8X8X8X8X8X8X8X8X8X8X8X8X8X8X8X8X8X8X8X8X8X8X",
"8X8X8X8X8X8X8X8X8X8X8X8X8X8X8X8X8X8X8X8X8X8X8X8X8X8X8X8X8X8X8X8X8X8X8X8X8X8X8X8X8X8X8X8X8X8X8X8X8X8X8X8X8X8X8X8X8X8X8X8X8X8X8X8X",
"8X8X8X8X8X8X8X8X8X8X8X8X8X8X8X] 8X8X8X8X8X8X8X8X8X8X8X8X8X8X8X8X8X8X8X8X8X8X8X8X8X8X8X8X8X8X8X8X8X8X8X8X8X8X8X8X8X8X8X8X8X8X8X8X",
"8X8X8X8X8X8X8X8X8X8X8X8X8X8X8X8X8X8X8X8X8X8X8X8X8X8X8X8X8X8X8X8X8X8X8X8X8X8X8X8X8X8X8X8X8X8X8X8X8X8X8X8X8X8X8X8X8X8X8X8X8X8X8X8X",
"8X8X8X8X8X8X8X8X8X8X8X8X8X8X8X8X8X8X8X8X8X8X8X8X8X8X8X8X8X8X8X8X8X8X8X8X8X8X8X8X8X8X8X8X8X8X8X8X8X8X8X8X8X8X8X8X8X8X8X8X8X8X8X8X",
"r 8X8X8X8Xr 8X8Xr 8X8X8X8Xr r 8X8X8X8X8X8Xr 8X8Xr 8X8X8X8X8X8X8X8X8X8X8X8X8X8Xr r r 8X8X8X8X8X8X8X8X8X8X8X8Xr r 8X8Xr r 8X8X8X8X",
"8X8X8X8X8X8X8X8X8X8X8Xr ] 8X8X8XqX8Xr r r 8X8X8X8X8X8X8X8X8X8X8X8X8X8X8X8X8X8X8X8X8X8Xr r r 8X8X8X8X8X8Xr 8X8X8X8X8X8X8X8X8X8X8X",
"r r 8Xr r r r 8Xr r 8XaXwX7X8X] r 8X8X8X8Xr r r r 8Xr 8X8X8Xr r r 8X8X8X8X8Xr r r r r 8X8X8Xr r r r r 8X8X8X8Xr 8X8Xr r r 8Xr r ",
"8X8X8X8XqXqX8X8X8X8X8X X}.&XqXqX] 8X8XqXqXqX8X8X8X8X8XqXqXqX8X8X8X8XqXqXqX8X8X8X8X8XqXqXqX8X8Xr 8XqXqXqX8X8X8X8X8X8XqXqXqX8X8Xr ",
"8Xr 8XwXaXsXaXwX%Xr aXv.,.=.}.&XqX8XqXaXsXsXwXr r 8XrXsXsXaXqXr r qXaXsXsXrXqXr 8XwXaXsXaXwX8Xr 8XrXsXsXrXqX8X8XwXaXsXsXwX8Xr r ",
"8Xr r 8XqXwXqX8X8Xr jXB.<.4.,.l.].%X8XqXqXqXqX8Xr 8X8XqXqXqX8X8Xr 8XqXqXqXqX8Xr 8X8XqXqX8X8Xr 8X8XqXqXqX8Xr 8X8X8XqXwXqX8Xr 8X8X",
"8X8X8X8Xr r 8X8X] 6XkXN.<.4.4.4.1. .@XqXr r 8X8X8X8X8Xr r 8X8X8X8X8X8Xr r 8X8X8Xr r 8X8X8X8X8X8X8Xr r r 8X8X8X8X8Xr r r 8X8X8X8X",
"8X8X8X8X8X8Xr r 8X6X2X0.<.4.4.4.4.4.9.{.' 7X8X8X8X8X8X8Xr r 8X8X8X8X8X8X8X8X8X8X8X8Xr r 8X8X8X8X8X8X8X8Xr r 8X8Xr 8X8X8X8Xr 8X8X",
"8X8X8X8X8X8Xr r %X6X,X7.4.4.4.4.4.6.6.3. .$XqXr qX8X%Xr r r 8Xr 8X8X8Xr r 8X8X8X8X8Xr r 8Xr r 8Xr 8X8X8Xr r 8X8Xr r 8X8X8Xr 8X8X",
"r 8X8X8Xr r 8X8Xr uX>X4.4.4.4.4.4.6.6.u.5.l.@XyX].' 7X8X8X8X8X7X8X8X8X8X8X8X8X8X8X8Xr 8X8X8X8Xr r r 8X8X8X8X8Xr 8X8Xr 8X8X8X8Xr ",
"8X8Xr 8X8X8Xr %Xr hX1X<.4.4.4.4.6.6.6.u.u.p.-.=XO.l.' 6X%X8X8X8Xr r 8X8X8X8Xr r 8X8X8X8X8X8Xr 8X8X8X8Xr r r 8X8X8X8X8X8X8X8X8X8X",
"8Xr r r 8X8X8X8Xr fXB.<.4.4.4.4.6.6.6.u.u.u.p.-.x y.-.].8X8X%Xr 8X8X8X8X8X8X8X8Xr 8X8X8X8X8Xr 8Xr r 8X8Xr r 8X8X8X8X8X8Xr r 8X8X",
"8X8X8Xr r r 8X8X6X=X0.4.4.4.4.4.6.u.u.u.u.u.p.p.i.s.d.y.{.r 8X8X8X8Xr r r r 8X8X8X8Xr r r 8Xr 8Xr r r r r 8Xr r 8X8Xr r r 8X8X8X",
"8X8X8XqXwXwXwXqX7X X7.4.4.4.4.6.6.6.u.u.u.p.p.p.p.d.d.d.s.O.$X8X%X8XqXwXwXqX8Xr r qXwXwXwXqX8X8X8XwXrXwXqX8X8X8X8XwXrXwXqX8X8X8X",
"r r 8XwXaXsXaXqXiX4X4.4.4.4.4.6.6.u.u.u.u.p.p.p.p.d.d.d.g.s. .' 6XqXrXsXsXrXqXr r wXsXsXaXwX8Xr 8XwXsXsXrXqX8X8XwXaXsXaXwX8Xr 8X",
"r 8X8X8X8X8X8Xr dX3X<.4.4.4.4.6.6.6.u.u.u.u.p.p.p.d.d.d.d.g.s.X.' qX8X8X8X8X8X8X8X8X8X8X8X8Xr 8X8X8X8X8X8X8X8X8X8X8X8X8X8X8X8X8X",
"8X8X8X8Xr r %Xr tX1X4.4.4.4.4.6.u.u.p.p.p.p.p.p.d.d.d.g.g.g.D.D.X.$X6X%Xr 8X7X8X8X8Xr r r 8X8X8X8X8Xr r r 8X8X8X8Xr r r 8X8X8X8X",
"8X8X8X8X8X8X8X7X-XN.4.4.4.4.4.u.5.&.[ z =.*.i.d.d.d.d.s.y.w.w.q.*.| $XqX%X8X8X8X8X8X8X8X8X8X8X8X8X8X8X8X8X8X8X8X8X8X8X8X8X8X8X8X",
"8X8X8X8X8X8Xr rXkX0.4.4.4.4.u.1.x '.XX$.$.'.N i.d.*.o.m m '.|..X'.*.X.' qX%X8X8X8X8X8X8X8X8X8X8X8X8X8X8X8X8X8X8X8X8X8X8X8X8X8X8X",
"8X8X8X8X8X8Xr iXlX4.4.4.4.6.1.N $._.^.^.^._.oXx.w.+.(.(.(._.~.`.M.{ D.X.$XqX%X8X8X8X8X8X8X8X8X8X8X8X8X8X8X8X8X8X8X8X8X8X8X8X8X8X",
"8X8X8X8X8X8Xr rX4X<.4.4.4.6.N M.E.R.R.R.R.E.^.#.{ n.E.E.E.E.E.E.@.{ L.S.+.' 8X%X8X8X8X8X8X8X8X8X8X8X8X8X8X8X8X8X8X8X8X8X8X8X8X8X",
"8X8X8X8X8X8X6XqX1X4.4.4.6.&.@.U.K.P.P.P.I.P.E.n.N m.I.K.K.P.I.W.+.q.L.G.S.+.%X8X8X8X8X8X8X8X8X8X8X8X8X8X8X8X8X8X8X8X8X8X8X8X8X8X",
"8X8X8X8X8X8X7X$Xl.<.4.6.6.S m.L.F.K.L.K.K.K.I.n.| C.L.K.Y.).).<X4 e.G.D.L.S.}.8X%X8X8X8X8X8X8X8X8X8X8X8X8X8X8X8X8X8X8X8X8X8X8X8X",
"rXrXrXrXrXrXrXrX&X}.&.6.3.{ C.D.S.H.m.).G.F.L.b.| k.G.m.8 1 1 @ ; S.G.G.G.L.A.=XuXrXrXwXuXrXrXrXrXrXrXrXrXrXrXrXrXrXrXrXrXrXrXrX",
"aXaXaXaXaXaXaXaXiXuX@Xl.&.x.k.f.H.| $ b G.S.G.X.| k.D.| .       < G.G.G.G.L.I.k.*XuXrX@XyXaXaXaXaXaXaXaXaXaXaXaXaXaXaXaXaXaXaXaX",
"8X8X8X8X8X8X8X8X8X8X7X$X^  .s.d.a.,   x H.s.f...| h.g.| , < < l a.G.G.G.G.L.K.L.t.+X7XOX$.%X8X8X8X8X8X8X8X8X8X8X8X8X8X8X8X8X8X8X",
"8X8X8X8X8X8X8X8X8X8X%X8XqX}.i.i.-.1 < x.s.i.s.| O.j.i.| [ *.w.D.G.G.G.G.L.L.L.L.I.r.' #XV.OXqX8X8X8X8X8X8X8X8X8X8X8X8X8X8X8X8X8X",
"8X8X8X8X8X8X8X8X8X8X8X%XqX,X5.5.2.o.o.c.i.i.h.| X.5.u.O.! m {.X.S.G.G.G.L.L.L.L.I.P.$.@XZ.J.[.6X8X8X8X8X8X8X8X8X8X8X8X8X8X8X8X8X",
"8X8X8X8X8X8X8X8X8X8X8X8XqX}.3.1.3.2.c.2.5.5.j.m x.3.1.c.c.j.j.O.e.G.G.G.L.L.L.I.P.I.P.XXn.E.C.@X8X8X8X8X8X8X8X8X8X8X8X8X8X8X8X8X",
"8X8X8X8X8X8X8X8X7X7X%X8Xr O.,.:.:.:.,.1.1.3.c.m l.,.:.:.,.,.,.z.b.G.G.L.L.L.L.I.I.I.R.A.V.R.E.n.qX6X%X8X8X8X8X8X8X8X8X8X8X8X8X8X",
"8X8X8X8X8X8X8X8X8X8X%X%Xe ( >.;.;.;.:.:.:.,.z.m z.H H H H ;.,.9.x.G.L.L.L.L.L.I.I.I.I.R.E.R.E.W..X6X%X8X8X8X8X8X8X8X8X8X8X8X8X8X",
"8X8X8X8Xr r r 8X8X8X%X8Xw ! 8.G G G H H H >.R m v.I 8.8.8.J H P x.F.L.L.I.L.I.I.P.I.I.R.R.E.R.E.J.@X6X%X8X8X8X8X8Xr r r 8X8X8X8X",
"8X8X8X8X8X8X8X8Xr r 8X8Xr 7 M 8.I I J G G K R 3 n ( ~ ~ ! R F P l.A.L.F.F.I.I.I.I.I.R.R.R.R.E.E.E.%.%X8X8X8Xr r 8X8X8X8X8X8X8X8X",
"8Xr 8XwXaXsXaXwX8X8XqXwXdX7 # ! ~ ~ ( P D F R 5 O . .   X c F L  .A.I.t.@.A.I.I.I.I.R.R.R.E.E.E.Q.J.;XaXrXqX8X8XwXaXsXaXwX8Xr 8X",
"8X8X8XqXwXrXwXqXr r 8XwXaXw @   . . : L D F ) 0 @ @ o o # v F A M V.L.).hX#Xt.I.P.I.R.R.R.E.E.E.E.Q./.yXwX8Xr r 8XwXrXwXqX8X8X8X",
"r r 8X8X8Xr r 8X8X8X8X8Xr 8Xw - & & 2 L Z Z M jXxXcXhX} l U Z A M V.L.Y.gX6X+Xn.P.R.R.R.R.E.E.E.Q.Q.T.OX6X8X8Xr r r r 8X8X8Xr r ",
"8Xr r 8X8X8X8X8X8X8X] 8X8XqXzXcXxXzX-XC C Z ~ cXvXvXvXcX XU C V M V.L.Y.;Xr 6X$X#.P.R.R.E.E.J.#.T.Q.Q./.qXr 8X8X8X8X8X8X8Xr r r ",
"8X8X8X8X8Xr r r 8X8X8X8X8Xr &XtXtXtXE C C C ~ jXxXxXxXzXfXV g V M A.L.U.OX6X%X6X' |.J.E.R.E.J.+X[.~.!.W.OX6X%X8X8Xr r 8X8X8X8Xr ",
"8X8X8X8Xr r 8X8X8X8X8X8X7X` v V B V C g g C W _ / / / / U f f a b F.L.U.XX6X8X%X8X6X#XC.E.E.J.*X6X|.T.!./.wX8X8X8X8Xr r 8X8X8Xr ",
"8X8X8X8X8X8Xr r 8X8X8X8X7X` B d f s s f f h 8 Q h p p h d s s a 4 r.I.K..X6X%X%X8X8X6X@XZ.Q.T.*X6X%X|.T.W.#X6X%Xr r 8X8X8X8X8X8X",
"8X8Xr 8X8X8X8X8X8X8Xr ] 8X` a d p p p p s h q Q u t t t p p d v 9 +Xb.K.#.6X8X8X8X8X%X6X+XZ.W.:X6X8X6X[.T.5XqX8X8X8X8X8Xr r 8X8X",
"r 8X8X8X8Xr 8X8Xr 8X8X8X7X_ a u t u u u i a 0 Q y t t u u u i c w 8X%X+...7X] r r r 8X8XqX+X$.;X6Xr r r [./.:XqX8X8X8Xr 8X8Xr r ",
"8X8X8X8XqXqX8Xr 8X8Xr 8XwXq v T j j j j T 2 6 Q j j j Y Y Y v : e qXqX%X$X8X8X8X8X8XqXqX8X7X$X$X8XqXqXqX8X[.OX%Xr 8XqXqX8X8X8X8X",
"8Xr 8XwXaXsXsXwXr r qXrXdX0 & - > = = > = @ 0 - * = = * * * & 5 r qXiXsXsXrXqXr 8XwXaXsXaXwXqX6X8XrXsXsXuXqX+X%XwXaXsXaXwX8Xr 8X",
"8X8X8XqXqXqXqX8X8X8X8X8XwXw @     + +   X 5 wX- X + % & % @ 5 r 8X8XqXwXqXqX8Xr 8XqXwXwXqX8X8X8X8XqXqXqXqX8X7X8X8XqXqXqXqX8X8Xr ",
"8X8X8X8Xr r r 8Xr r r 8Xr 8X9 5 6 9 9 7 9 8Xr e 9 0 w r r w r 8X8X8X8X8Xr r r r r r r r r r r 8Xr r r 8X8X8X8X8X8Xr r r 8X8X8Xr ",
"8X8Xr r 8X8X8X8X8X8X8Xr r r 8XqXqX8X8XqX8Xr 8X8X8X8X8X8X8X8X8X8X8X8X8X8X8Xr 8X8X8X8Xr r r r 8X8X8X8X8Xr r r 8X8X8X8X8X8X8Xr 8X8X",
"r 8X8X8X8Xr 8X8Xr 8X8X8X8X8Xr r 8X8X8Xr 8X8Xr r r 8X8X8Xr r 8X8X8X8X8X8X8Xr 8X8Xr 8X8X8Xr r r 8X8X8Xr 8X8X8X8X8X8X8Xr r 8X8X8X8X",
"8X8X8X8X8X8X8X8X8X8X8X8X8X8X8X8X8X8X8X8X8X8X8X8X8X8X8X8X8X8X8X8X8X8X8X8X8X8X8X8X8X8X8X8X8X8X8X8X8X8X8X8X8X8X8X8X8X8X8X8X8X8X8X8X",
"8X8X8X8X8X8X8X8X8X8X8X8X8X8X8X8X8X8X8X8X8X8X8X8X8X8X8X8X8X8X8X8X8X8X8X8X8X8X8X8X8X8X8X8X8X8X8X8X8X8X8X8X8X8X8X8X8X8X8X8X8X8X8X8X",
"8X8X8X8X8X8X8X8X8X8X8X8X8X8X8X8X8X8X8X8X8X8X8X8X8X8X8X8X8X8X8X8X8X8X8X8X8X8X8X8X8X8X8X8X8X8X8X8X8X8X8X8X8X8X8X8X8X8X8X8X8X8X8X8X",
"8X8X8X8X8X8X8X8X8X8X8X8X8X8X8X8X8X8X8X8X8X8X8X8X8X8X8X8X8X8X8X8X8X8X8X8X8X8X8X8X8X8X8X8X8X8X8X8X8X8X8X8X8X8X8X8X8X8X8X8X8X8X8X8X",
"8X8X8X8X8X8X8X8X8X8X8X8X8X8X8X8X8X8X8X8X8X8X8X8X8X8X8X8X8X8X8X8X8X8X8X8X8X8X8X8X8X8X8X8X8X8X8X8X8X8X8X8X8X8X8X8X8X8X8X8X8X8X8X8X",
"8X8X8X8X8X8X8X8X8X8X8X8X8X8X8X8X8X8X8X8X8X8X8X8X8X8X8X8X8X8X8X8X8X8X8X8X8X8X8X8X8X8X8X8X8X8X8X8X8X8X8X8X8X8X8X8X8X8X8X8X8X8X8X8X",
"8X8X8X8X8X8X8X8X8X8X8X8X8X8X8X8X8X8X8X8X8X8X8X8X8X8X8X8X8X8X8X8X8X8X8X8X8X8X8X8X8X8X8X8X8X8X8X8X8X8X8X8X8X8X8X8X8X8X8X8X8X8X8X8X",
"8X8X8X8X8X8X8X8X8X8X8X8X8X8X8X8X8X8X8X8X8X8X8X8X8X8X8X8X8X8X8X8X8X8X8X8X8X8X8X8X8X8X8X8X8X8X8X8X8X8X8X8X8X8X8X8X8X8X8X8X8X8X8X8X"
};
