/* XPM */
static char *a313227fd12444d89d7ce453ca2dbd04CwVOHEnIYr3CNVi7[] = {
/* columns rows colors chars-per-pixel */
"64 64 203 2 ",
"   c #76797D",
".  c #7F7F7F",
"X  c #807F7F",
"o  c #DEA916",
"O  c #DBA71B",
"+  c #DEAA19",
"@  c #E6A706",
"#  c #ECA602",
"$  c #E6A904",
"%  c #EBAB02",
"&  c #E5A60D",
"*  c #E9A60C",
"=  c #E5AA0B",
"-  c #E9AA0B",
";  c #F0AB00",
":  c #EDB102",
">  c #EFBB06",
",  c #ECB20D",
"<  c #EEBB0E",
"1  c #F5B205",
"2  c #F4BB02",
"3  c #FABB00",
"4  c #F4B50A",
"5  c #F2BA0A",
"6  c #F9BB0D",
"7  c #E4A614",
"8  c #EDA617",
"9  c #E4AA13",
"0  c #EAAB14",
"q  c #E2A61B",
"w  c #E5AB1A",
"e  c #EAAD1B",
"r  c #ECB114",
"t  c #EDBC14",
"y  c #E4B11E",
"u  c #ECB21A",
"i  c #ECBC1F",
"p  c #F3B712",
"a  c #F2BB14",
"s  c #F9BC15",
"d  c #F0B31D",
"f  c #F4BD1E",
"g  c #CAA62E",
"h  c #C7A92E",
"j  c #DEA621",
"k  c #D9A427",
"l  c #DDAB24",
"z  c #DDAB2B",
"x  c #CBA633",
"c  c #C9A939",
"v  c #DBAD33",
"b  c #D7A738",
"n  c #DDB433",
"m  c #DAB637",
"M  c #DDB23E",
"N  c #E3A727",
"B  c #E4AC23",
"V  c #EBAD23",
"C  c #E5AD2A",
"Z  c #E6B124",
"A  c #EDB325",
"S  c #EDBC21",
"D  c #E4B12A",
"F  c #EBB32A",
"G  c #E6B92D",
"H  c #EBBA2B",
"J  c #F2B625",
"K  c #F4BF20",
"L  c #E1AF34",
"P  c #E2AE3B",
"I  c #E3B433",
"U  c #EAB533",
"Y  c #EBBC35",
"T  c #E2B33C",
"R  c #EAB63A",
"E  c #F7C300",
"W  c #FAC000",
"Q  c #ECC01D",
"!  c #F3C21E",
"~  c #F0C127",
"^  c #EDC335",
"/  c #EBC03D",
"(  c #F0C431",
")  c #B1964D",
"_  c #A6915F",
"`  c #B29251",
"'  c #B49A59",
"]  c #8F866E",
"[  c #9F8E64",
"{  c #90866F",
"}  c #9F8E68",
"|  c #9F9068",
" . c #8D8572",
".. c #81807F",
"X. c #8C877A",
"o. c #8D897D",
"O. c #918771",
"+. c #968D77",
"@. c #9A9276",
"#. c #9D947C",
"$. c #A18E64",
"%. c #A49262",
"&. c #AA9762",
"*. c #AC9964",
"=. c #A3936A",
"-. c #A89769",
";. c #A4986C",
":. c #AD9B6E",
">. c #B49E6D",
",. c #A29773",
"<. c #AA9D73",
"1. c #A4997B",
"2. c #B29E78",
"3. c #BCA363",
"4. c #B9A669",
"5. c #B4A375",
"6. c #BAA874",
"7. c #B5A279",
"8. c #CBA747",
"9. c #C7A849",
"0. c #D4AB41",
"q. c #D5AC49",
"w. c #DDB341",
"e. c #DAB942",
"r. c #D7B248",
"t. c #DBB34A",
"y. c #CBAE57",
"u. c #CBB15A",
"i. c #DBB352",
"p. c #DBBB54",
"a. c #DEBB5D",
"s. c #E5B745",
"d. c #E3BB49",
"f. c #EDBF4E",
"g. c #E4BC52",
"h. c #E3BC5B",
"j. c #CCAE61",
"k. c #D0AC61",
"l. c #CBB46A",
"z. c #D5B464",
"x. c #DDBA64",
"c. c #DFBD6D",
"v. c #CBB777",
"b. c #D4BB76",
"n. c #D8BC79",
"m. c #E0B766",
"M. c #E4BE62",
"N. c #E7C245",
"B. c #EBC44A",
"V. c #EDCA59",
"C. c #F0CF54",
"Z. c #D8C379",
"A. c #E6C364",
"S. c #E4C46B",
"D. c #E9C76B",
"F. c #F0CD69",
"G. c #E1C577",
"H. c #777B84",
"J. c #7C7E83",
"K. c #797E89",
"L. c #7E8083",
"P. c #7E8086",
"I. c #7E8188",
"U. c #818181",
"Y. c #828282",
"T. c #858584",
"R. c gray53",
"E. c #888785",
"W. c #8C8A85",
"Q. c #83868C",
"!. c #86888F",
"~. c #898989",
"^. c #8C8C8C",
"/. c #928E86",
"(. c #938F89",
"). c #949084",
"_. c #9B9485",
"`. c #93928B",
"'. c #9A958B",
"]. c #9F9B8B",
"[. c #8B8E93",
"{. c #8D9095",
"}. c #929292",
"|. c #9A9893",
" X c #A29B85",
".X c #A39C89",
"XX c #ADA38A",
"oX c #B1A989",
"OX c #B5A889",
"+X c #AFA692",
"@X c #B4AB93",
"#X c #C7B683",
"$X c #D7BC81",
"%X c #CABD94",
"&X c #D2BC91",
"*X c #C7BEA6",
"=X c #D7C698",
"-X c #E4C482",
";X c #F3DC95",
":X c #FCE795",
">X c #CDC1A6",
",X c #D6C8A8",
"<X c #F8E1A2",
/* pixels */
"U.U.U.U.U.U.U.U.U.U.U.U.U.U.U.U.U.U.U.U.U.U.U.U.U.U.U.U.U.U.U.U.U.U.U.U.U.U.U.U.U.U.U.U.U.U.U.U.U.U.U.U.U.U.U.U.U.U.U.U.U.U.U.U.",
"U.U.U.U.U.U.U.U.U.U.U.U.U.U.U.U.U.U.U.U.U.U.U.U.U.U.U.U.U.U.U.U.U.U.U.U.U.U.U.U.U.U.U.U.U.U.U.U.U.U.U.U.U.U.U.U.U.U.U.U.U.U.U.U.",
"U.U.U.U.U.U.U.U.U.U.U.U.U.U.U.U.U.U.U.U.U.U.U.U.U.U.U.U.U.U.U.U.U.U.U.U.U.U.U.U.U.U.U.U.U.U.U.U.U.U.U.U.U.U.U.U.U.U.U.U.U.U.U.U.",
"U.U.U.U.U.U.U.U.U.U.U.U.U.U.U.U.U.U.U.U.U.U.U.U.U.U.U.U.U.U.U.U.U.U.U.U.U.U.U.U.U.U.U.U.U.U.U.U.U.U.U.U.U.U.U.U.U.U.U.U.U.U.U.U.",
"U.U.U.U.U.U.U.U.U.U.U.U.U.U.U.U.U.U.U.U.U.U.U.U.U.U.U.U.U.U.U.U.U.U.U.U.U.U.U.U.U.U.U.U.U.U.U.U.U.U.U.U.U.U.U.U.U.U.U.U.U.U.U.U.",
"U.U.U.U.U.U.U.U.U.U.U.U.U.U.U.U.U.U.U.U.U.U.U.U.U.U.U.U.U.U.U.U.U.U.U.U.U.U.U.U.U.U.U.U.U.U.U.U.U.U.U.U.U.U.U.U.U.U.U.U.U.U.U.U.",
"U.U.U.U.U.U.U.U.U.U.U.U.U.U.U.U.U.U.U.U.U.U.U.U.U.U.U.U.U.U.U.U.U.U.U.U.U.U.U.U.U.U.U.U.U.U.U.U.U.U.U.U.U.U.U.U.U.U.U.U.U.U.U.U.",
"U.U.U.U.U.U.U.U.U.U.U.U.U.U.U.U.U.U.U.U.U.U.U.U.......U...............U.U.U.U.U...U.U.U.U.U.U.U.U.U.U.U.U.U.U.U.U.U.U.U.U.U.U.U.",
". U.U.U.U.. U.U.. . . . . ............U.......J.J.J.J.J.J.J.J.J.J.J.J.J.J.J.J.J.J.X ..................... . . . U.U.. . U.U.U.U.",
"U.U.U.U.U.U.U.U.L.|.+X'.W.J.J.J.I.P.J.J.J.J.I.,.8.x g h h g x x x x g x x x x c ;.I.J.J.J.J.J.P.P.P.P.U.R.`.`.L.U.U.U.U.U.U.U.U.",
". . U.. . . . U.  7.D.z.3.%.$.$.$.[ [ [ } =.-.w.s 3 3 W E W 3 3 3 3 W 3 W W 3 2 m -.,.| [ [ [ $.%.%.%.*.3.m.2.H.U.U.. . . U.. . ",
"U.U.U.U.R.R.U...K.` 0 q w w e w w e q B F U z w p 5 2 2 2 2 2 2 2 2 2 2 2 2 2 5 y l Y U q w w w w w w w q 8 ` K...U.R.R.R.U.U.. ",
"U.. U.~.}.|.}.W.H.) r 9 - * * - @ - - e A N 8.r.a 5 2 2 2 3 3 3 3 2 2 2 2 2 2 6 9.9.q J 0 - - @ * * - = 7 0 ' K.W.}.|.|.~.U.. . ",
"U.. . U.R.~.R.U.H.7.d.z Z e e u u r - d C M #.:.~ 5 2 2 2 2 3 3 3 2 2 2 2 3 4 s &.+.L B e = r u u e e w I q.+.J.U.R.~.R.U.. U.U.",
"U.U.U.U.. . U.U.. W.OXS.R F A F A u = u z x.W.<.^ < 2 2 2 2 2 2 2 2 2 2 2 2 4 f _ ).A.z u - u A A A A I D. XJ.U.U.. . . U.U.U.U.",
"U.U.U.U.U.U.. . U.. U.7.b q 7 7 7 = $ r z Z.`.<.^ < 2 2 2 2 2 2 2 2 2 2 2 2 2 K &.`.G.z r % $ & 7 7 q b 6.R.X U.. U.U.U.U.. U.U.",
"U.U.U.U.U.U.. . X U.. _.z.P C V V 0 = u C h.W.,.^ < 2 2 3 3 2 2 2 2 2 2 2 2 2 ! &./.a.l u = 0 e V C P k.).. U.U.. . U.U.U.. U.U.",
". U.U.U.. . U.U.. U.U.R.@Xn.f.F J d - u B T 5.v.^ t 2 2 2 3 2 2 2 2 2 2 2 2 > ! 4.1.T D u = u J F f.n._.R.U.U.. U.U.. U.U.U.U.. ",
"U.U.. U.U.U.. . U.U.U..   ].a.O = - = 9 y j w.B.S 5 2 2 2 2 2 2 2 2 2 2 2 2 2 a M 0.j F w = = = O p. X  X U.U.U.U.U.U.U.U.U.U.U.",
"U.. . . U.U.U.U.U.. . . . ^.v.n w 0 w w Z I v j u 5 2 2 2 2 2 2 2 2 2 2 2 2 5 t w L R D w w 0 w v Z.`.. X . U.U.U.U.U.U.. . U.U.",
"U.U.U.. . . U.U.. . U.U.. U._.;._ _ _ _ %.-.-.' w.a 2 2 2 2 2 3 2 2 2 2 2 2 5 Y ' -.:.%._ _ _ %.;._.. X U.U.. . U.U.. . . U.U.U.",
"U.U.U.R.~.~.~.R.U.U.U.R.~.~.U.J.P.J.I.Q.!.!.Q.J.6.G 5 2 2 2 2 2 2 2 2 2 2 5 S 3.U.I.!.!.!.I.J.J.J.R.^.~.R.U.U.U.U.~.^.~.R.U.U.U.",
". . U.~.}.|.}.~.. . U.^.|.|.^.R.U...W.`.|.}.~.. o.p.i < 5 2 2 2 2 2 2 > < Q e.X.  W.}.|.}.W...X U.^.|.|.^.R.U.U.~.}.|.}.~.U.. U.",
". U.U.U.U.U.U.U.. U.U.U.U.U.U.U.U.U.U.U.U.U.U.U.U.1.u./ i 5 2 2 2 2 5 t m u.,.U.U.U.U.U.U.U.. U.U.U.U.U.U.U.U.U.U.U.U.U.U.U.U.U.",
"U.U.U.U.. . . U.U.U.U.U.. . . U.U.U.U.. . . U.U.U.J./.#Xp.i 5 2 2 5 t e.,.R.J.U.U.U.. . . U.U.U.U.U.. . . U.U.U.U.. . . U.U.U.U.",
"U.U.U.U.U.U.U.U.U.U.U.U.U.U.U.U.U.U.U.U.U.U.U.U.U.U.U.J.#.M 5 2 2 5 n @.J.U.U.U.U.U.U.U.U.U.U.U.U.U.U.U.U.U.U.U.U.U.U.U.U.U.U.U.",
"U.U.U.U.U.U.U.U.U.U.U.U.U.U.U.U.U.U.U.U.U.U.U.U.U.U.U.U.L.y.f 5 2 a 8.L.U.U.U.U.U.U.U.U.U.U.U.U.U.U.U.U.U.U.U.U.U.U.U.U.U.U.U.U.",
"U.U.U.U.U.U.U.U.U.U.U.U.U.U.U.U.U.U.U.U.U.U.U.U.U.U.U.U.U.l.G 5 5 S u.U.U.U.U.U.U.U.U.U.U.U.U.U.U.U.U.U.U.U.U.U.U.U.U.U.U.U.U.U.",
"U.U.U.U.U.U.U.U.U.U.U.U.U.U.U.U.U.U.U.U.U.U.U.U.U.U.U.U.J.oXd., , G Z.U.. U.U.U.U.U.U.U.U.U.U.U.U.U.U.U.U.U.U.U.U.U.U.U.U.U.U.U.",
"U.U.U.U.U.U.U.U.U.U.U.U.U.U.U.U.U.U.U.U.U.U.U.U.U.U.U.U.. W.j.w & s.=XU.U.U.U.U.U.U.U.U.U.U.U.U.U.U.U.U.U.U.U.U.U.U.U.U.U.U.U.U.",
"U.U.U.U.U.U.U.U.U.U.U.U.U.U.U.U.U.U.U.U.U.U.U.U.U.U.U.U...U.*.w 7 t.%XU...U.U.U.U.U.U.U.U.U.U.U.U.U.U.U.U.U.U.U.U.U.U.U.U.U.U.U.",
"^.^.^.^.^.^.^.^.^.^.^.^.^.^.^.^.^.^.^.^.^.^.^.^.^.^.^.^.^.[.:.e 7 h.,X^.^.^.^.^.^.^.^.^.^.^.^.^.^.^.^.^.^.^.^.^.^.^.^.^.^.^.^.^.",
"}.}.}.}.}.}.}.}.}.}.}.}.}.}.}.}.}.}.}.}.}.}.}.}.}.}.}.}.`.{.:.w q a.>X}.}.}.}.}.}.}.}.}.}.}.}.}.}.}.}.}.}.}.}.}.}.}.}.}.}.}.}.}.",
"U.U.U.U.U.U.U.U.U.U.U.U.U.U.U.U.U.U.U.U.U.U.U.U.U.U.U.U.U.J.=.w o S.*XU.U.U.U.U.U.U.U.U.U.U.U.U.U.U.U.U.U.U.U.U.U.U.U.U.U.U.U.U.",
"U.U.U.U.U.U.U.U.U.U.U.U.. U.U.U.U.U.U.U.U.U.U.U.. U.U.U...J.=.B q M.*XU.U.U.U.U.U.U.U.U.. U.U.U.U.U.U.U.U.U.U.U.. U.U.U.U.U.U.U.",
"U.U.U.U.U.U.U.U.U.U.U.U.U.U.U.U.U.U.U.U.U.U.U.U.U.U.U.U.U.J.=.B 7 M.>XU.U.U.U.U.U.U.U.U.U.U.U.U.U.U.U.U.U.U.U.U.U.U.U.U.U.U.U.U.",
"U.U.U.U.U.U.U.U.U.U.U.U.U.U.U.U.U.U.U.U.U.U.U.U.U.U.U.U.U.U.>.B q M.,XU.U.U.U.U.U.U.U.U.U.U.U.U.U.U.U.U.U.U.U.U.U.U.U.U.U.U.U.U.",
"U.U.U.U.U.U.U.U.U.U.U.U.U.U.U.U.U.U.U.U.U.U.U.U.U.U.. .   '.c.+ o t.=XJ.  . . U.. U.U.U.U.U.U.U.U.U.U.U.U.U.U.U.U.U.U.U.U.U.U.U.",
"U.U.U.U.U.U.U.U.U.U.U.U.U.U.U.U.U.U.U.U.U.U.L.U.U.J.W. X X$Xs.= = I G..X.X'.R.. U.U.U.U.U.U.U.U.U.U.U.U.U.U.U.U.U.U.U.U.U.U.U.U.",
"U.U.U.U.. . . U.U.U.U.U.. . U.U.U.U.U.U.. . L.U.. (.v.p.g.R 7 - - 7 T A.x.b.@XR.U.U.. . . U.U.U.U.U.. . U.U.U.U.U.. . . U.U.U.U.",
"U.U.U.U.U.U.U.U.. . U.U.U.U.U.U.U.. U.U.U.U.U.. W.&Xq.O 7 7 0 & & 0 7 q j b n.W.. U.U.U.U.U.U.U.U.U.U.U.U.U.. . U.U.U.U.U.U.U.U.",
"U.. U.~.}.|.}.~.U.U.R.~.}.}.^.R.U.U.R.}.|.|.W.. W.-Xz = - 9 O T M z q - - q M.W.. ~.}.|.}.~.U.. R.^.}.}.~.R.U.U.~.}.|.}.~.U.. U.",
"U.U.U.R.~.^.~.R.. . U.~.^.^.R.U.U.U.U.~.^.^.W.. W.G.l = = D F.;X:XD.I = @ 9 t.o.J.R.^.^.~.U.U.U.U.R.^.^.~.U.. . U.~.^.~.R.U.U.U.",
". . U.U.U.. . U.U.U.U.U.U.. . U.U.. U.U.. . U.. W.x.B = 9 C.:X<X<X:XV.9 % = w.o.J...U.. . . U.U.U.. . U.U.U.U.. . . . U.U.U.. . ",
"U.. . U.U.U.U.U.U.U.. . U.U.U.U.U.U.. . . U.U.J.o.g.d 4 p ( N.B.N.B.Y p 4 4 T X.L.U.U.U.U.U.. . U.U.U.U.. . U.U.U.U.U.U.U.. . . ",
"U.U.U.U.U.. . . U.U.U.U.U.U.U.U.U.U.U.U.. U.U.J.1.T , 1 1 , , , , , 4 4 1 4 v +.J.U.U.U.U.U.. . U.U.U.U.U.U.U.U.U.. . U.U.U.U.. ",
"U.U.U.U.. . U.U.U.U.U.U.U.. U.U.. . R.R.U.U.. W.v.l $ # # # @ # # % % @ # $ N 6.E.. U.U.U.U.U.U.U.U.. U.U.U.U.U.U.U.. . U.U.U.. ",
"U.U.U.U.U.U.. . U.U.U.U.U.U.U.U.U.. . ... U.J.+XM.+ % # % # # # % % % # % % o h.XX. U.U.U.U.U.U.U.U.U.U.U.. U.U.. . U.U.U.U.U.U.",
"U.U.. U.U.U.U.U.U.U.. U.U.U.U.U.U.U.U.U.U.U.J.XXs.9 % % # % # # % % % # # % = R 2.H.U.U.L.U.U.U.. U.U.U.. . U.U.U.U.U.U.. . U.U.",
". U.U.U.U.. U.U.. U.U.U.. . U.U.U.U.U.U.U.X J.>.N * % # # # # % # # % # # # = q 3.W.X U.U.U.U.U.U.. . . U.U.U.U.U.U.U.. U.U.. . ",
"U.U.U.U.R.R.U.. U.U.. U.R.R.U.U.U.U.U.U.R.R.XXi.w % % % ; % % % % % % % % % % = d.#XR.R.U.U.U.U.U.R.R.R.U.U.. U.. U.R.R.U.U.U.U.",
"U.. U.~.}.|.|.~.. . R.^.|.|.^.R.U.U.~.}.|.}.b.Y p 4 5 2 4 4 5 5 5 5 5 5 4 5 5 p H z.}.|.}.~.U.. U.^.|.|.^.R.U.U.~.}.|.}.~.U.. U.",
"U.U.U.R.R.R.R.U.U.U.U.R.R.R.R.U.U.U.U.R.^.oX0.9 : : : : % % : : : : : : % % : : 0 0..X^.R.U.U.U.U.R.R.R.R.U.U.U.U.R.R.R.R.U.U.. ",
"U.U.U.U.. . . U.. . . U.U.. U.U.. . ..  ].Z.k & = @ $ $ # # # # @ # @ @ # $ @ # * k b.'.  ... U.. . . U.U.U.U.U.U.. . . U.U.U.. ",
"U.U.. . U.U.U.U.U.U.U.. . . . U.U.U.U.. R.o. .O.] ] ] ] ] ] { { { { { ] ] ] ] { O. .o.U.. X U.U.U.U.U.. . . U.U.U.U.U.U.U.. U.U.",
". U.U.U.U.. L.U.. U.U.U.U.U.U.U.U.U.U.U.U.J.J.J.J.J.P.J.J.J.J.P.J.J.P.J.J.J.J.P.J.J.J.J.. . . U.U.U.. U.U.U.U.U.U.U.. . U.U.U.U.",
"U.U.U.U.U.U.U.U.U.U.U.U.U.U.U.U.U.U.U.U.U.U.......U.U.........U.U.U.U.........U...U.U.U.U.U.U.U.U.U.U.U.U.U.U.U.U.U.U.U.U.U.U.U.",
"U.U.U.U.U.U.U.U.U.U.U.U.U.U.U.U.U.U.U.U.U.U.U.U.U.U.U.U.U.U.U.U.U.U.U.U.U.U.U.U.U.U.U.U.U.U.U.U.U.U.U.U.U.U.U.U.U.U.U.U.U.U.U.U.",
"U.U.U.U.U.U.U.U.U.U.U.U.U.U.U.U.U.U.U.U.U.U.U.U.U.U.U.U.U.U.U.U.U.U.U.U.U.U.U.U.U.U.U.U.U.U.U.U.U.U.U.U.U.U.U.U.U.U.U.U.U.U.U.U.",
"U.U.U.U.U.U.U.U.U.U.U.U.U.U.U.U.U.U.U.U.U.U.U.U.U.U.U.U.U.U.U.U.U.U.U.U.U.U.U.U.U.U.U.U.U.U.U.U.U.U.U.U.U.U.U.U.U.U.U.U.U.U.U.U.",
"U.U.U.U.U.U.U.U.U.U.U.U.U.U.U.U.U.U.U.U.U.U.U.U.U.U.U.U.U.U.U.U.U.U.U.U.U.U.U.U.U.U.U.U.U.U.U.U.U.U.U.U.U.U.U.U.U.U.U.U.U.U.U.U.",
"U.U.U.U.U.U.U.U.U.U.U.U.U.U.U.U.U.U.U.U.U.U.U.U.U.U.U.U.U.U.U.U.U.U.U.U.U.U.U.U.U.U.U.U.U.U.U.U.U.U.U.U.U.U.U.U.U.U.U.U.U.U.U.U.",
"U.U.U.U.U.U.U.U.U.U.U.U.U.U.U.U.U.U.U.U.U.U.U.U.U.U.U.U.U.U.U.U.U.U.U.U.U.U.U.U.U.U.U.U.U.U.U.U.U.U.U.U.U.U.U.U.U.U.U.U.U.U.U.U.",
"U.U.U.U.U.U.U.U.U.U.U.U.U.U.U.U.U.U.U.U.U.U.U.U.U.U.U.U.U.U.U.U.U.U.U.U.U.U.U.U.U.U.U.U.U.U.U.U.U.U.U.U.U.U.U.U.U.U.U.U.U.U.U.U."
};
