/* XPM */
static char *a4084a927ce54298b220d3776ecfeec2EYPwaVIDYuA2R7Ka[] = {
/* columns rows colors chars-per-pixel */
"64 64 246 2 ",
"   c #070507",
".  c #03050B",
"X  c #17080A",
"o  c #0B0B14",
"O  c #0F0E19",
"+  c #181519",
"@  c #280A0D",
"#  c #370A0D",
"$  c #340E12",
"%  c #25171C",
"&  c #371719",
"*  c #0B1522",
"=  c #181B26",
"-  c #271E24",
";  c #391D22",
":  c #182530",
">  c #292427",
",  c #242B34",
"<  c #322D32",
"1  c #373537",
"2  c #4B0E12",
"3  c #471619",
"4  c #591419",
"5  c #671519",
"6  c #6B1619",
"7  c #711619",
"8  c #75191B",
"9  c #7A191C",
"0  c #4D221E",
"q  c #521E21",
"w  c #761E23",
"e  c #4A2728",
"r  c #562727",
"t  c #5D2426",
"y  c #50322F",
"u  c #47373A",
"i  c #682928",
"p  c #772828",
"a  c #6D352D",
"s  c #653636",
"d  c #773737",
"f  c #5A423F",
"g  c #6F492D",
"h  c #353B41",
"j  c #6C3E43",
"k  c #344954",
"l  c #3E5560",
"z  c #474649",
"x  c #4B4E55",
"c  c #585658",
"v  c #73454D",
"b  c #6F4C50",
"n  c #4B5D69",
"m  c #6C5A64",
"M  c #5F6062",
"N  c #666466",
"B  c #6C6B6C",
"V  c #726D73",
"C  c #737374",
"Z  c #7A7273",
"A  c #777579",
"S  c #7E7E7E",
"D  c #821B1D",
"F  c #8B1C1F",
"G  c #931C1F",
"H  c #891E20",
"J  c #931D20",
"K  c #9A1E22",
"L  c #A41E23",
"P  c #AC1F24",
"I  c #B11F24",
"U  c #88292A",
"Y  c #972426",
"T  c #88322F",
"R  c #8A3435",
"E  c #943737",
"W  c #A82327",
"Q  c #AC2025",
"!  c #B42126",
"~  c #BC2226",
"^  c #B6262A",
"/  c #B23332",
"(  c #B93435",
")  c #C62727",
"_  c #CB2626",
"`  c #D42C27",
"'  c #DA342C",
"]  c #C73837",
"[  c #D43C38",
"{  c #E63B24",
"}  c #8E4C38",
"|  c #B44B35",
" . c #916933",
".. c #AC6C39",
"X. c #CE463D",
"o. c #D9443C",
"O. c #ED4123",
"+. c #E84D3A",
"@. c #EA513E",
"#. c #9E3D40",
"$. c #9C4945",
"%. c #8F5452",
"&. c #A84943",
"*. c #B84648",
"=. c #AE5251",
"-. c #BA5759",
";. c #956E4F",
":. c #AF7646",
">. c #885C62",
",. c #AA5F68",
"<. c #BC5C62",
"1. c #8E686F",
"2. c #87797A",
"3. c #827E7E",
"4. c #97757A",
"5. c #AF696B",
"6. c #A67A79",
"7. c #BA7573",
"8. c #C94848",
"9. c #CC4C4C",
"0. c #D64D4A",
"q. c #C7534E",
"w. c #DA534C",
"e. c #C94E52",
"r. c #C75457",
"t. c #D85657",
"y. c #E44E46",
"u. c #ED5544",
"i. c #E4524B",
"p. c #E55648",
"a. c #EC554B",
"s. c #EC5B4C",
"d. c #F1574A",
"f. c #F05C4C",
"g. c #E55952",
"h. c #ED5C51",
"j. c #F15750",
"k. c #F15E51",
"l. c #D9665C",
"z. c #CC7A59",
"x. c #E76458",
"c. c #EC655B",
"v. c #F16255",
"b. c #F1665A",
"n. c #F2685F",
"m. c #E4725F",
"M. c #CA5C62",
"N. c #C86569",
"B. c #DB6A66",
"V. c #DC766A",
"C. c #C66F71",
"Z. c #C87576",
"A. c #D97A76",
"S. c #E76C66",
"D. c #EC6C64",
"F. c #F26B62",
"G. c #F26E68",
"H. c #E37866",
"J. c #E4746B",
"K. c #EC736C",
"L. c #F2736B",
"P. c #E97976",
"I. c #F17A77",
"U. c #7E807F",
"Y. c #AA8F39",
"T. c #B28D4E",
"R. c #8E807E",
"E. c #BA8778",
"W. c #B39276",
"Q. c #BEA575",
"!. c #C89156",
"~. c #D48A6E",
"^. c #D79868",
"/. c #DA9877",
"(. c #E48778",
"). c #E59170",
"_. c #C9AA79",
"`. c #D8A774",
"'. c #E0A86F",
"]. c #E5A675",
"[. c #E9B578",
"{. c #58728C",
"}. c #5A7491",
"|. c #727386",
" X c #697B97",
".X c #847C84",
"XX c #977B88",
"oX c #A97C87",
"OX c #C87D82",
"+X c #54899E",
"@X c #7F8080",
"#X c #7595AC",
"$X c #818181",
"%X c #8A8686",
"&X c #968989",
"*X c #898898",
"=X c #998C93",
"-X c #8F909A",
";X c #949497",
":X c #A78987",
">X c #AC8B8D",
",X c #B5898B",
"<X c #AA9597",
"1X c #B99599",
"2X c #BEAF9B",
"3X c #8E92A0",
"4X c #9698A5",
"5X c #A59DA4",
"6X c #9CA2B1",
"7X c #A9A3AE",
"8X c #A8A8B3",
"9X c #B6ABB4",
"0X c #B7B6BB",
"qX c #C68687",
"wX c #D98888",
"eX c #D6988A",
"rX c #C58B93",
"tX c #D68A94",
"yX c #C8969A",
"uX c #D99699",
"iX c #E88786",
"pX c #F18584",
"aX c #E69787",
"sX c #ED8F91",
"dX c #E99594",
"fX c #F3999A",
"gX c #CFAC87",
"hX c #EBAC91",
"jX c #CA9EA2",
"kX c #D79CA3",
"lX c #C6AAAB",
"zX c #E6ABAB",
"xX c #F1B3B0",
"cX c #CBC5AD",
"vX c #E4CBA7",
"bX c #98ACC0",
"nX c #AFB8C0",
"mX c #B5BAC3",
"MX c #CBBFC5",
"NX c #BCC2CC",
"BX c #D2CED3",
"VX c #E5D5D9",
"CX c #D8DCE2",
"ZX c #EDE9EA",
"AX c #F8EBEC",
"SX c #FBFAFA",
/* pixels */
"$X$X$X$X$X$X$X$X$X$X$X$X$X$X$X$X$X$X$X$X$X$X$X$X$X$X$X$X$X$X$X$X$X$X$X$X$X$X$X$X$X$X$X$X$X$X$X$X$X$X$X$X$X$X$X$X$X$X$X$X$X$X$X$X",
"$X$X$X$X$X$X$X$X$X$X$X$X$X$X$X$X$X$X$X$X$X$X$X$X$X$X$X$X$X$X$X$X$X$X$X$X$X$X$X$X$X$X$X$X$X$X$X$X$X$X$X$X$X$X$X$X$X$X$X$X$X$X$X$X",
"$X$X$X$X$X$X$X$X$X$X$X$X$X$X$X$X$X$X$X$X$X$X$X$X$X$X$X$X$X$X$X$X$X$X$X$X$X$X$X$X$X$X$X$X$X$X$X$X$X$X$X$X$X$X$X$X$X$X$X$X$X$X$X$X",
"$X$X$X$X$X$X$X$X$X$X$X$X$X$X$X$X$X$X$X$X$X$X$X$X$X$X$X$X$X$X$X$X$X$X$X$X$X$X$X$X$X$X$X$X$X$X$X$X$X$X$X$X$X$X$X$X$X$X$X$X$X$X$X$X",
"$X$X$X$X@X@X@X$X$X$X$X$X.X$X$X@XS 3.3.$X$X$X$X$X$X$X$X$XS S S @X$X$X$X$X$X$X$X$X$X$X$X$X$X$X$X$X$X$X$X$X$X$X$X$X$X$X$X$X$X$X$X$X",
"$X$X$X2.2.2.3.$X$X@X$X$X$X$X$X$X%X4.6.<X<X<X<X<X<X<X=X&X&X%X%X%X%X$X$X$X@X@X$X$X$X$X$X$X$X$X$X$X$X$X$X$X$X$X$X$X$X$X$X$X$X$X$X$X",
"$X$XR.C.V.C.7.6.R.2.R.$X.X$X&X>XyXwXiXsXsXsXsXdXdXdXuXuXuXyXyX1X1X<X=X&X%X3.3.|.$X$X$X$X$X$X$X$X$X$X$X$X$X$X$X$X$X$X$X$X$X$X$X$X",
"$X3.7.S.F.D.D.S.V.7.6.6.6.=X1XyXtXiXJ.S.D.D.F.G.L.L.L.I.I.I.pXpXsXsXdXuXqXE.6.$XS .X$X$X$X$X$X$X$X$X$X$X$X$X$X$X$X$X$X$X$X$X$X$X",
"@XR.C.D.F.F.n.F.F.D.S.S.OX-X*X,XZ.-.#.E | *.*.8.9.w.t.t.x.x.x.D.S.K.P.P.P.pXwX,X$XS $X$X$X$X$X$X$X$X$X$X$X$XS S $X$XS S $X$X$X$X",
"$X&XV.F.n.F.F.n.F.n.F.V.oX X XXX5.E T E E R T T T E E E } $.&.&.&.=.=.-.-.<.N.Z.:X$X@XS S S $X$X$X$X$X$XS $X$X$X$X$X$X$X$X$X$X$X",
"3.6.S.F.n.n.F.F.F.n.B.6.*X X XXX-.e.w.i.y.0.0.0.0.8.8.8.*.*.*.&.&.&.$.$.&.$.$.$.>.3.S $X$X$XS S S S S $X$X$X$XS $X$XS S S $XS S ",
"R.6.D.n.F.F.n.n.n.c.,.|. X X X4.-.t.d.d.d.d.d.d.d.f.s.s.h.h.h.x.x.x.x.x.x.S.B.B.7.2.%X%X%X$X$XS $X%X%X%X$X$X$X$X$X$X%X%X%X$X$XS ",
"3.7.S.J.J.K.D.D.F.l.>.|. X}.|.5.-.w.s.s.s.d.d.d.a.a.s.f.j.k.v.v.b.b.n.F.G.G.L.L.pXqX=X;X;X%X$XS $X%X;X;X%X%X$X$X%X;X;X;X%X$XS S ",
"2.C.(.uXyXwXqXwXiXZ.1. X}.{.|.5.=.=.-.e.w.w.y.p.s.s.f.f.s.h.v.v.b.b.n.n.D.D.S.J.A.qX%X%X$X$XS $X$X%X%X%X$XS $X$X$X%X%X%X$XS $X$X",
"3.E.eXyXyXeX,XrXuXrXXX X}.{.|.,.>..XXXXX6.>.$.} *.0.i.g.r.t.g.g.g.t.l.V.Z.OXrXjXlX<XV A $X$X$X$X$XS S S $X$X$X$X$XS S S $X$X$X$X",
"$XE./._./.].W.,XtXrX*X}.}.}.2.5.>XmXBXCXCXnXn % & s %.7.yXoX,.$.a s m 9XBXVXZXAXSXZX&XB S $X$X@X@X$X@X@XS S $X$XS $X$X$X$XS $X$X",
"&X~.^./.].].W.oXtXtX.X{.}. X4.5.,XkXVXVXAXCX+X: o 1 -XBXZXCX6Xn + + x BXSXSXSXSXSXSX0XN C $XU.@XS $X$X$XS S $X$XS S $X$X$XS $X$X",
":X!.^.].].'.~.6.tXtXoX|.{.|.5.-.r.g.S.(.fXzX6X{.k l mXSXSXSXCX#Xk : l BXSXAXAXAXAXAXVX2.Z $X$XU.S S $X$X%X$X$XS $X$XS $X$X$X$XS ",
"R.:.!./.].[.`.6.tXtXtXXXB |.7.-.t.a.s.j.k.c.B.7.1.XXMXAXSXSXAXNX#Xn Z zXxXzXfXfXfXfXzXqX4.3.U.$X$X$X@XS S 3.$X$X$X$X$X$X$X$X@X$X",
"V } z.`.'.'.`.:XrXtXtXtXoXoXZ.-.9.i.i.i.a.y.i.p.i.l.P.dXxXVXxXaXZ.N.l.D.G.D.D.K.K.K.I.pXqX2.S R.3.3.$X$X$X$X$X$X$X$X$X$XS S @X$X",
"N a ..^.`._._.:X1X1XuXkXkXwXJ.l.t.t.i.y.@.+.+.+.+.p.x.P.iXaX(.H.B.l.m.m.m.m.l.H.H.J.K.I.(.6.4.6.6.:X>X>X<X<X&X%X%X$XS S S $X$X$X",
"N y ..^.gXgX2X>X=X=XyXkXkXP.S.J.P.P.K.D.c.u.@.@.s.J.aXaXaX/./././.].'.'.].'.^.).].hXhXhXhXaX/.(.wXzXzXzXzXzXkXyX1X<X=X%X%X$X$X$X",
"B e ..!.gXgXgX2X5X=XrX1XrXl.S.kXlXuXsXpXI.L.b.v.v.m.J.(.).'.].].'.[.[.[.[.[.[.[.hXhXhXhXhXhXhXhXaXhXfXfXfXfXsXsXdXkXjX;X%X$XR.$X",
"B y  .T._.`.gX_.Q.W.,X,X6.<.A.7XbX1XP.I.I.(.(.I.L.D.K.iXaX].[././.].[.[.[.[.].].).(.(.wXwXiXaXaXaXdXsXpXpXI.I.I.I.pXdX>X%X$X$X$X",
"B u  .T.Q.gX_.!.T.:.5.oX4.,.Z.>X3X>XB.S.c.F.L.I.pXpXpXsXpX(.).V.V.H.).).).~.~.V.V.V.V.A.(.(.).).(.iXpXI.I.L.L.I.P.P.I.wX&X$X$X$X",
"C 1  .:.;.W.W.T.Y...$.XX4.j v 5.XXoXB.g.h.j.v.c.K.iXpXpXpXP.J.S.D.D.S.S.m.m.H.V.V.V.V.V.H.H.H.J.K.L.I.K.F.F.F.K.P.J.L.iX,X$X@X$X",
"C 1 g  .;.T.:.b  ...&.1.m < > %.5.6.M.t.g.s.h.h.g.J.K.K.L.L.K.n.b.b.c.c.v.x.x.x.x.x.x.m.x.D.D.D.F.F.F.F.n.b.b.c.c.c.K.(.tX&X$X$X",
"C < g ....:.;.f  ...$.>.c : * u 5.C.N.t.t.i.w.w.g.x.x.x.c.F.F.b.v.v.k.k.k.k.f.k.k.h.v.v.v.v.b.b.b.n.F.n.v.v.h.h.h.x.A.aXdX,X$X$X",
"C > s } | ....;.Y.Y.%.1.x , * > %.C.N.M.t.t.q.z.^.~.N.l.x.x.c.b.v.f.s.v.v.f.f.f.f.f.f.f.f.k.v.v.v.v.D.G.v.s.s.p.l.Z.jXvXhXrX$XU.",
"C > y } | ......Y.Y.;.A x , * = v N.N.M.t.t.q.!.'.gX>XE.^.~.H.x.s.s.v.H.x.u.u.u.u.u.u.u.s.s.s.s.s.s.D.K.v.s.p.B.rX9X0XcXvXeX%X$X",
"C > 0 g } $.....Y.Y.%.m h + o * y <.C.N.t.t.q.<.^.`.&XW.^.^.^.Z.t.s.s.g.s.u.p.u.p.s.s.s.s.s.s.s.s.s.s.s.s.s.g.tXBXmX8X0XvXeX6.R.",
"S > & r a v %...Y.Y.} b , X X * ; =.C.N.r.t.e.=.z.^.:X4.,.5.,XlXuXx.u.u.u.u.u.u.u.u.s.s.s.s.s.s.s.s.s.s.s.s.x.uXVXlX<X2XgX(.,X&X",
"U.> 3 a a ; e  .Y. .} b > X @ O = R M.N.M.r.e.*.=.z.6.%.%.,.7.kXwXw.@.u.u.u.u.u.u.u.u.u.u.u.u.u.s.f.f.f.f.k.n.P.(.V.V.J.K.J.E.&X",
"C > 3 s a ; e  . . .} f - X X o O w *.-.<.M.r.e.q.q.q.e.9.w.w.8.( ) [ y.a.u.u.u.u.u.u.@.u.u.u.u.u.f.h.h.u.y.w.p.s.v.b.F.F.c.<.2.",
"C > 3 i p s j  . .g g s - @ @ o O 4 Q ( *.<.<.r.e.e.9.9.9.0.] W L ! ) [ 0.i.i.u.u.u.u.d.d.d.f.f.f.k.k.u.' ^ W ^ o.a.v.v.d.+.-.2.",
"C < 3 t p p T }  .a a s % @ # X O 2 L ! ^ *.<.<.-.r.r.r.9.( H 9 J L I ^ ] 9.0.y.i.i.a.a.a.s.s.s.s.s.y.' ) G D G ^ ' +.+.O.O.| 2.",
"C < 3 0 r a U i g p a y % # # X o # K ! I ^ *.*.*.*.=.*.] W 7 4 w H H G K W / ( ] ] [ [ [ [ [ [ ] ( ! W w 4 H Y L ) { O.O.{ | 2.",
"C u 0 & - e p i s p i u > # # @ o % F I ! ! ^ ^ ! ^ / / ^ [ / d j j d a p w p U H U Y Y Y Y Y Y U U R %.u & / [ ! ! ` { O.{ | 2.",
"C u e $ o % e r r p p y > 2 2 # o O 9 L I I I I I I Q ! ) +.u.X.=.>.A A V m b b v v v v v v b >.1.XX5X4Xz 4 8.p.] ~ _ { { { / 2.",
"A z r ; = + + q i p U y - 3 2 2 o o 5 L L P P P L L L L ) y.a.u.i.-.4.%X*X*X*X3X-X-X-X-X3X4X5X7X0XmXmX@X1 T p.h.o._ _ ` { ' E 2.",
"A z r e , = % t U U T s > 3 4 4 + o 4 K L L L L L L L P ] i.i.i.u.i.t.5.4.%X*X4X4X6X7X7X8X8X8X8X8X8X3Xx t ] h.v.y.` _ ` ' ` T Z ",
"S x e ; : : ; i U T } v < 3 6 5 %   2 J K K K K K K K L ] 0.w.w.i.i.i.w.-.%.1.*X3X4X4X6X6X8X8X0XnXmX7X>./ y.h.h.y.` _ _ ` ) p Z ",
"S N u & * = @ q p T %.m < r p i %   # F K K K K K K K L / e.e.9.w.i.i.i.w.9.r.Z.qX1X9X9X9X9X0XMXMXlX,Xr.o.y.+.o.' ` ` _ _ ~ i C ",
"S C 1 = o .   $ i p v x : r p d & . # D K K K K K K K L ! *.e.e.e.w.i.i.w.9.8.] 8.r.N.Z.qXqXrXqXA.B.w.o.o.[ ` ` ` ` _ _ _ I 4 V ",
"$XC h * .       $ i j z = 3 U U & . @ 8 F G K K K K K L Q / *.*.8.9.0.i.w.0.9.] ~ ^ ] ] ] 8.8.0.o.o.[ ] ] ) _ _ _ _ _ _ _ G 3 B ",
"$XA k * .     o X $ r u = ; U U & . X 5 F J G K K K K L L Q Q ! ^ ( ] 8.0.t.9.] ! I Q L Q Q Q ! Q Q ! ~ ~ ! ~ ~ ) ~ ) _ ) F ; C ",
"$XA z o     + > > + & e % ; U U & .   2 D F F J K K K K L L L L L L Q ^ ] 8.8.] ~ ! P L K K K K K L I ! ! I I ! ! ! ~ ) ! 5 > C ",
"$XA x > > 1 z c N c u ; + - U Y & .   # 9 D F G K K K K K K K K K K K L Q ^ ] ] ~ ~ ! I L L L L Q ! ! Q Q L L L L Q Q ! K $ < C ",
"$XU.A C C C A S $XS C N , = d R ; .   @ 5 9 D F F G J J J H H H F F F F G K W Q ! ~ ! ! ! ! ! ! ! ! L K K G J J J K K J 5 X z S ",
"S $X$X%X$X$X$X$XS $X$XS x = s d % . . X 2 6 7 8 D D D D D D D D D 9 D D D D F J K L Q Q Q Q Q Q L K F D D D D 9 9 9 8 4 @ + B S ",
"$X$X$X$X%X%X$XS $XS S $XB : > y + . .   @ 4 5 5 7 7 8 8 9 9 9 9 9 9 9 8 8 8 8 9 9 D H H J J J H D 9 9 8 9 8 8 7 6 5 2 @ o z A $X",
"$XU.$X%X;X;X;X%XS S $X;X%X1 = , O . .   X # 4 4 5 6 6 6 7 7 7 8 8 8 8 8 8 8 8 8 8 8 8 9 9 9 9 8 7 6 5 5 5 5 4 2 2 @ X   < B S S ",
"$X$X$X%X%X%X%X$X$X$X$X%X$Xn k h O . .     X # 2 2 4 5 5 5 5 5 6 6 7 7 7 7 7 7 7 6 5 5 5 5 5 5 4 t r q 3 3 & & % + + + 1 B $X$XS ",
"$X$X$X$XU.S S $XS S S $XS A n , .     + + + + + & 3 r t t t t t t t t t t t t r r r e e e e y u c N N B B B B B N N B C S $X$XS ",
"$X$XS S @X@X$X$X$X$X$XS S C z = O + > 1 x c c N N V Z Z Z Z Z Z Z Z Z Z Z Z Z Z C C C C C C C A S @X@XS S $X$X%X$X$X$X$X$XS $X$X",
"S $X$X$X$XS $X$XS $X$X$X$XS B M N B C A S S S S $X$X$X$X$X$X$X$X$X$X$X$X$X$X$X$X$X$X$X$X$X$X$X$X$X$X3.$X$X$X$XS $X$XS S $X$X$X$X",
"$X$X$X$X$X$X$X$X$X$X$X$X$X$X$X$X$X$X$X$X$X$X$X$X$X$X$X$X3.3.$X$X$X$X$X$X3.3.$X$X3.$X$X$X3.S 3.$X$X$X$X$X$X$X$X$X$X$X$X$X$X$X$X$X",
"$X$X$X$X$X$X$X$X$X$X$X$X$X$X$X$X$X$X@X@X$X$X$X$X$X$X$X$X$X$X$X$X$X$X$X$X$X$X$X$X$X$X$X$X$X$X$X$X$X$X$X3.$X$X$X$X$X$X$X$X$X$X$X$X",
"$X$X$X$X$X$X$X$X$X$X$X$X$X$X$X$X$X$X@X$X$X$X$X$X$X$X$X$X$X$X$X$X$X$X$X$X$X$X$X$X$X$X$X$X$X$X$X$X$X$X3.$X$X$X$X$X$X$X$X$X$X$X$X$X",
"$X$X$X$X$X$X$X$X$X$X$X$X$X$X$X$X$X$X$X$X$X$X$X$X$X$X$X$X$X$X$X$X$X$X$X$X$X$X$X$X$X$X$X$X$X$X$X$X$X$X$X$X$X$X$X$X$X$X$X$X$X$X$X$X",
"$X$X$X$X$X$X$X$X$X$X$X$X$X$X$X$X$X$X$X$X$X$X$X$X$X$X$X$X$X$X$X$X$X$X$X$X$X$X$X$X$X$X$X$X$X$X$X$X$X$X$X$X$X$X$X$X$X$X$X$X$X$X$X$X",
"$X$X$X$X$X$X$X$X$X$X$X$X$X$X$X$X$X$X$X$X$X$X$X$X$X$X$X$X$X$X$X$X$X$X$X$X$X$X$X$X$X$X$X$X$X$X$X$X$X$X$X$X$X$X$X$X$X$X$X$X$X$X$X$X",
"$X$X$X$X$X$X$X$X$X$X$X$X$X$X$X$X$X$X$X$X$X$X$X$X$X$X$X$X$X$X$X$X$X$X$X$X$X$X$X$X$X$X$X$X$X$X$X$X$X$X$X$X$X$X$X$X$X$X$X$X$X$X$X$X",
"$X$X$X$X$X$X$X$X$X$X$X$X$X$X$X$X$X$X$X$X$X$X$X$X$X$X$X$X$X$X$X$X$X$X$X$X$X$X$X$X$X$X$X$X$X$X$X$X$X$X$X$X$X$X$X$X$X$X$X$X$X$X$X$X"
};
