/* XPM */
static char *a3e8a45eebcb4d38ae49d67fc62641f9MRCS7GRD8lhPgyPQ[] = {
/* columns rows colors chars-per-pixel */
"64 64 256 2 ",
"   c black",
".  c #010101",
"X  c #020202",
"o  c gray1",
"O  c #040404",
"+  c gray2",
"@  c #060606",
"#  c #070707",
"$  c gray3",
"%  c #090909",
"&  c gray4",
"*  c #0B0B0B",
"=  c #0C0C0C",
"-  c gray5",
";  c #0E0E0E",
":  c gray6",
">  c #101010",
",  c #111111",
"<  c gray7",
"1  c #131313",
"2  c gray8",
"3  c #151515",
"4  c #161616",
"5  c gray9",
"6  c #181818",
"7  c #191919",
"8  c gray10",
"9  c #1B1B1B",
"0  c gray11",
"q  c #1D1D1D",
"w  c #1E1E1E",
"e  c gray12",
"r  c #202020",
"t  c gray13",
"y  c #222222",
"u  c #232323",
"i  c gray14",
"p  c #252525",
"a  c gray15",
"s  c #272727",
"d  c #282828",
"f  c gray16",
"g  c #2A2A2A",
"h  c gray17",
"j  c #2C2C2C",
"k  c #2D2D2D",
"l  c gray18",
"z  c #2F2F2F",
"x  c gray19",
"c  c #313131",
"v  c #323232",
"b  c gray20",
"n  c #343434",
"m  c #353535",
"M  c gray21",
"N  c #373737",
"B  c gray22",
"V  c #393939",
"C  c #3A3A3A",
"Z  c gray23",
"A  c #3C3C3C",
"S  c gray24",
"D  c #3E3E3E",
"F  c #3F3F3F",
"G  c gray25",
"H  c #414141",
"J  c gray26",
"K  c #434343",
"L  c #444444",
"P  c gray27",
"I  c #464646",
"U  c gray28",
"Y  c #484848",
"T  c #494949",
"R  c gray29",
"E  c #4B4B4B",
"W  c #4C4C4C",
"Q  c gray30",
"!  c #4E4E4E",
"~  c gray31",
"^  c #505050",
"/  c #515151",
"(  c gray32",
")  c #535353",
"_  c gray33",
"`  c #555555",
"'  c #565656",
"]  c gray34",
"[  c #585858",
"{  c gray35",
"}  c #5A5A5A",
"|  c #5B5B5B",
" . c gray36",
".. c #5D5D5D",
"X. c gray37",
"o. c #5F5F5F",
"O. c #606060",
"+. c gray38",
"@. c #626262",
"#. c gray39",
"$. c #646464",
"%. c #656565",
"&. c gray40",
"*. c #676767",
"=. c #686868",
"-. c DimGray",
";. c #6A6A6A",
":. c gray42",
">. c #6C6C6C",
",. c #6D6D6D",
"<. c gray43",
"1. c #6F6F6F",
"2. c gray44",
"3. c #717171",
"4. c #727272",
"5. c gray45",
"6. c #747474",
"7. c gray46",
"8. c #767676",
"9. c #777777",
"0. c gray47",
"q. c #797979",
"w. c gray48",
"e. c #7B7B7B",
"r. c #7C7C7C",
"t. c gray49",
"y. c #7E7E7E",
"u. c gray50",
"i. c #808080",
"p. c #818181",
"a. c gray51",
"s. c #838383",
"d. c #848484",
"f. c gray52",
"g. c #868686",
"h. c gray53",
"j. c #888888",
"k. c #898989",
"l. c gray54",
"z. c #8B8B8B",
"x. c gray55",
"c. c #8D8D8D",
"v. c #8E8E8E",
"b. c gray56",
"n. c #909090",
"m. c gray57",
"M. c #929292",
"N. c #939393",
"B. c gray58",
"V. c #959595",
"C. c gray59",
"Z. c #979797",
"A. c #989898",
"S. c gray60",
"D. c #9A9A9A",
"F. c #9B9B9B",
"G. c gray61",
"H. c #9D9D9D",
"J. c gray62",
"K. c #9F9F9F",
"L. c #A0A0A0",
"P. c gray63",
"I. c #A2A2A2",
"U. c gray64",
"Y. c #A4A4A4",
"T. c #A5A5A5",
"R. c gray65",
"E. c #A7A7A7",
"W. c gray66",
"Q. c #A9A9A9",
"!. c #AAAAAA",
"~. c gray67",
"^. c #ACACAC",
"/. c gray68",
"(. c #AEAEAE",
"). c #AFAFAF",
"_. c gray69",
"`. c #B1B1B1",
"'. c #B2B2B2",
"]. c gray70",
"[. c #B4B4B4",
"{. c gray71",
"}. c #B6B6B6",
"|. c #B7B7B7",
" X c gray72",
".X c #B9B9B9",
"XX c gray73",
"oX c #BBBBBB",
"OX c #BCBCBC",
"+X c gray74",
"@X c gray",
"#X c gray75",
"$X c #C0C0C0",
"%X c #C1C1C1",
"&X c gray76",
"*X c #C3C3C3",
"=X c gray77",
"-X c #C5C5C5",
";X c #C6C6C6",
":X c gray78",
">X c #C8C8C8",
",X c gray79",
"<X c #CACACA",
"1X c #CBCBCB",
"2X c gray80",
"3X c #CDCDCD",
"4X c #CECECE",
"5X c gray81",
"6X c #D0D0D0",
"7X c gray82",
"8X c #D2D2D2",
"9X c LightGray",
"0X c gray83",
"qX c #D5D5D5",
"wX c gray84",
"eX c #D7D7D7",
"rX c #D8D8D8",
"tX c gray85",
"yX c #DADADA",
"uX c gray86",
"iX c gainsboro",
"pX c #DDDDDD",
"aX c gray87",
"sX c #DFDFDF",
"dX c gray88",
"fX c #E1E1E1",
"gX c #E2E2E2",
"hX c gray89",
"jX c #E4E4E4",
"kX c gray90",
"lX c #E6E6E6",
"zX c #E7E7E7",
"xX c gray91",
"cX c #E9E9E9",
"vX c #EAEAEA",
"bX c gray92",
"nX c #ECECEC",
"mX c gray93",
"MX c #EEEEEE",
"NX c #EFEFEF",
"BX c gray94",
"VX c #F1F1F1",
"CX c gray95",
"ZX c #F3F3F3",
"AX c #F4F4F4",
"SX c gray96",
"DX c #F6F6F6",
"FX c gray97",
"GX c #F8F8F8",
"HX c #F9F9F9",
"JX c gray98",
"KX c #FBFBFB",
"LX c gray99",
"PX c #FDFDFD",
"IX c #FEFEFE",
"UX c white",
/* pixels */
"i.i.i.i.i.i.i.i.i.i.i.i.i.i.i.i.i.i.i.i.i.i.i.i.i.i.i.i.i.i.i.i.i.i.i.i.i.i.i.i.i.i.i.i.i.i.i.i.i.i.i.i.i.i.i.i.i.i.i.i.i.i.i.i.",
"i.i.i.i.i.i.i.i.i.i.i.i.i.i.i.i.i.i.i.i.i.i.i.i.i.i.i.i.i.i.i.i.i.i.i.i.i.i.i.i.i.i.i.i.i.i.i.i.i.i.i.i.i.i.i.i.i.i.i.i.i.i.i.i.",
"i.i.i.i.i.i.i.i.i.i.i.i.i.i.i.i.i.i.i.i.i.i.i.i.i.i.i.i.i.i.i.i.i.i.i.i.i.i.i.i.i.i.i.i.i.i.i.i.i.i.i.i.i.i.i.i.i.i.i.i.i.i.i.i.",
"i.i.i.i.i.i.i.i.i.i.i.i.i.i.i.i.i.i.i.i.i.i.i.i.i.i.i.i.i.i.i.i.i.i.i.i.i.i.i.i.i.i.i.i.i.i.i.i.i.i.i.i.i.i.i.i.i.i.i.i.i.i.i.i.",
"i.i.i.i.i.i.i.i.i.i.i.i.i.i.i.i.i.i.i.i.i.i.i.i.i.i.i.i.i.i.i.i.i.i.i.i.i.i.i.i.i.i.i.i.i.i.i.i.i.i.i.i.i.i.i.i.i.i.i.i.i.i.i.i.",
"i.i.i.i.i.i.i.i.i.i.i.i.i.i.i.i.i.i.i.i.i.i.i.i.i.i.i.i.i.i.i.i.i.i.i.i.i.i.i.i.i.i.i.i.i.i.i.i.i.i.i.i.i.i.i.i.i.i.i.i.i.i.i.i.",
"i.i.i.i.i.i.i.i.i.i.i.i.i.i.i.i.i.i.i.i.i.i.i.i.i.i.i.i.i.i.i.i.i.i.i.i.i.i.i.i.i.i.i.i.i.i.i.i.i.i.i.i.i.i.i.i.i.i.i.i.i.i.i.i.",
"i.i.i.i.i.i.i.i.i.i.i.i.i.i.i.i.i.i.i.i.i.i.i.i.i.i.i.i.i.i.i.i.i.i.i.i.i.i.i.i.i.i.i.i.i.i.i.i.i.i.i.i.i.i.i.i.i.i.i.i.i.i.i.i.",
"u.i.i.i.i.i.i.p.t.y.u.i.i.i.i.i.i.i.i.p.p.i.u.y.u.u.i.i.i.i.i.p.i.i.i.i.i.i.i.i.t.u.i.p.i.i.i.i.i.i.i.i.i.i.u.y.a.p.i.u.u.u.i.i.",
"p.p.a.a.a.p.i.u.f.s.a.i.i.i.i.i.d.a.u.y.u.p.s.s.a.p.p.p.p.p.p.p.a.p.p.p.p.p.p.p.d.a.i.u.u.i.a.s.a.p.p.i.i.p.a.s.u.i.p.a.a.p.p.p.",
"t.y.i.u.t.y.p.s.w.t.p.a.p.i.i.p.t.u.p.p.i.y.y.y.u.u.u.u.i.i.u.t.u.u.i.i.i.u.y.y.t.y.u.p.p.p.u.y.t.t.t.i.s.s.i.t.s.i.y.y.u.i.y.t.",
"s.p.p.p.s.a.i.y.d.a.i.i.p.a.p.i.p.i.u.p.s.d.a.i.a.p.u.i.p.s.a.p.a.a.p.p.i.i.p.p.p.a.s.s.p.i.i.i.s.d.d.a.u.y.i.a.t.u.a.s.a.p.p.a.",
"i.t.i.z.S.J.Z.b.r.t.d.M.J.K.M.g.p.a.j.V.K.G.x.y.r.d.m.G.J.C.h.r.t.g.B.H.H.N.f.e.a.z.Z.G.A.c.s.r.p.b.G.H.M.g.p.p.c.Z.J.D.x.i.t.u.",
"i.u.u.a.f.g.s.u.a.i.u.p.d.d.p.y.i.u.u.p.d.f.s.p.y.u.p.d.f.d.a.u.u.p.s.f.f.s.i.y.i.s.f.d.p.u.u.i.i.s.f.d.p.y.y.u.u.a.g.g.a.u.u.i.",
"i.a.a.i.r.r.u.s.t.i.s.a.y.t.u.a.u.a.d.a.t.e.y.a.a.i.u.y.y.u.p.a.a.p.u.y.y.u.p.a.y.u.u.u.i.i.p.a.i.y.r.y.a.d.a.u.d.i.r.r.u.a.a.p.",
"p.u.u.p.a.a.u.r.s.i.y.u.p.a.p.u.i.u.u.i.p.a.p.u.i.i.p.p.i.u.u.u.u.i.i.p.p.i.i.u.a.i.i.i.a.a.i.y.i.p.a.p.u.y.i.a.t.i.a.a.i.u.u.p.",
"i.i.p.p.p.i.u.y.i.u.u.u.i.i.i.i.u.y.i.p.i.p.a.u.p.p.i.u.u.u.u.i.p.i.i.u.u.i.i.p.p.a.i.y.i.u.y.i.u.i.i.i.u.u.i.p.y.u.i.p.p.i.u.u.",
"i.i.p.i.y.u.p.s.t.u.a.s.a.i.u.i.p.i.a.a.y.y.i.i.u.i.i.p.p.p.p.i.i.i.i.p.p.i.i.i.i.i.y.u.s.s.i.i.u.u.i.a.s.s.i.y.d.p.u.u.i.p.i.u.",
"p.i.i.i.p.i.u.t.d.a.u.y.y.u.i.u.a.u.y.u.y.i.a.i.i.i.u.u.i.i.p.a.p.i.u.u.u.u.i.p.i.a.i.u.i.u.u.a.a.a.p.u.y.y.i.a.y.u.p.p.i.i.p.p.",
"u.u.u.i.p.a.p.p.u.u.u.i.p.a.a.p.u.y.p.s.a.a.p.t.i.i.p.a.a.p.i.u.u.i.p.a.a.p.i.u.u.p.p.p.a.p.u.u.u.i.p.p.p.i.p.p.p.a.a.p.i.u.u.u.",
"i.i.i.y.r.r.y.p.y.u.i.u.t.r.t.u.i.u.p.u.e.r.u.i.a.i.t.r.r.y.u.i.p.i.y.r.r.y.i.p.p.u.w.q.y.i.u.i.u.t.r.t.u.p.i.u.i.y.r.r.y.i.i.i.",
"a.i.i.f.z.c.j.s.a.i.i.f.z.z.g.i.d.i.a.h.z.x.j.i.i.a.f.k.z.k.d.p.i.s.h.l.l.h.s.i.y.g.z.z.j.a.u.p.a.j.c.x.f.i.i.p.a.j.x.z.f.i.i.a.",
"u.y.i.z.Z.F.B.x.e.r.s.n.F.F.n.d.i.i.j.V.G.S.z.r.r.d.b.S.F.N.g.t.r.f.m.D.D.m.f.r.w.l.S.H.C.k.u.t.p.c.S.F.m.g.i.i.x.B.D.Z.z.i.y.u.",
"u.i.p.p.u.y.y.i.i.p.p.u.t.r.y.i.i.u.p.i.r.t.p.a.s.i.y.t.y.i.p.p.a.i.u.t.t.u.i.a.a.p.r.e.u.i.u.i.s.i.y.y.u.i.i.u.i.y.y.u.p.a.p.i.",
"i.i.i.i.i.i.i.i.i.i.i.i.i.i.i.i.i.i.i.i.i.i.i.i.i.i.i.i.i.i.i.i.i.i.i.i.i.i.i.i.i.i.i.i.i.i.i.i.i.i.i.i.i.i.i.i.i.i.i.i.i.i.i.i.",
"i.i.i.i.i.i.i.i.i.i.i.i.i.i.i.i.i.i.i.i.i.i.i.i.i.i.i.i.i.i.i.i.i.i.i.i.i.i.i.i.i.i.i.i.i.i.i.i.i.i.i.i.i.i.i.i.i.i.i.i.i.i.i.i.",
"i.i.i.i.i.i.i.i.i.i.i.i.i.i.i.i.i.i.i.i.i.i.i.i.i.i.i.i.i.i.i.i.i.i.i.i.i.i.i.i.i.i.i.i.i.i.i.i.i.i.i.i.i.i.i.i.i.i.i.i.i.i.i.i.",
"p.p.p.p.p.p.p.p.p.p.p.p.p.p.p.p.p.p.p.p.p.p.p.p.p.p.p.p.p.p.p.p.p.p.p.p.p.p.p.p.p.p.p.p.p.p.p.p.p.p.p.p.p.p.p.p.p.p.p.p.p.p.p.p.",
"u.u.u.u.u.u.u.u.u.u.u.u.u.u.u.u.u.u.u.u.u.u.u.u.u.u.u.u.u.u.u.u.u.u.u.u.u.u.u.u.u.u.u.u.u.u.u.u.u.u.u.u.u.u.u.u.u.u.u.u.u.u.u.u.",
"a.a.a.a.a.a.a.a.a.a.a.a.a.a.a.a.a.a.a.a.a.a.a.a.a.a.a.a.a.a.a.a.a.a.a.a.a.a.a.a.a.a.a.a.a.a.a.a.a.a.a.a.a.a.a.a.a.a.a.a.a.a.a.a.",
"t.t.t.t.t.t.t.t.t.t.t.t.t.t.t.t.t.t.t.t.t.t.t.t.t.t.t.t.t.t.t.t.t.t.t.t.t.t.t.t.t.t.t.t.t.t.t.t.t.t.t.t.t.t.t.t.t.t.t.t.t.t.t.t.",
"n.n.n.n.n.n.n.n.n.n.n.n.n.n.n.n.n.n.n.n.n.n.n.n.n.n.n.n.n.n.n.n.n.n.n.n.n.n.n.n.n.n.n.n.n.n.n.n.n.n.n.n.n.n.n.n.n.n.n.n.n.n.n.n.",
"N.N.N.N.N.N.N.N.N.N.N.N.N.N.N.N.N.N.N.N.N.N.N.N.N.N.N.N.N.N.N.N.N.N.N.N.N.N.N.N.N.N.N.N.N.N.N.N.N.N.N.N.N.N.N.N.N.N.N.N.N.N.N.N.",
"t.t.t.t.t.t.t.t.t.t.t.t.t.t.t.t.t.t.t.t.t.t.t.t.t.t.t.t.t.t.t.t.t.t.t.t.t.t.t.t.t.t.t.t.t.t.t.t.t.t.t.t.t.t.t.t.t.t.t.t.t.t.t.t.",
"a.a.a.a.a.a.a.a.a.a.a.a.a.a.a.a.a.a.a.a.a.a.a.a.a.a.a.a.a.a.a.a.a.a.a.a.a.a.a.a.a.a.a.a.a.a.a.a.a.a.a.a.a.a.a.a.a.a.a.a.a.a.a.a.",
"i.i.i.i.i.i.i.i.i.i.i.i.i.i.i.i.i.i.i.i.i.i.i.i.i.i.i.i.i.i.i.i.i.i.i.i.i.i.i.i.i.i.i.i.i.i.i.i.i.i.i.i.i.i.i.i.i.i.i.i.i.i.i.i.",
"p.p.p.p.p.p.p.p.p.p.p.p.p.p.p.p.p.p.p.p.p.p.p.p.p.p.p.p.p.p.p.p.p.p.p.p.p.p.p.p.p.p.p.p.p.p.p.p.p.p.p.p.p.p.p.p.p.p.p.p.p.p.p.p.",
"i.i.i.i.i.i.i.i.i.i.i.i.i.i.i.i.i.i.i.i.i.i.i.i.i.i.i.i.i.i.i.i.i.i.i.i.i.i.i.i.i.i.i.i.i.i.i.i.i.i.i.i.i.i.i.i.i.i.i.i.i.i.i.i.",
"i.i.i.i.i.i.i.i.i.i.i.i.i.i.i.i.i.i.i.i.i.i.i.i.i.i.i.i.i.i.i.i.i.i.i.i.i.i.i.i.i.i.i.i.i.i.i.i.i.i.i.i.i.i.i.i.i.i.i.i.i.i.i.i.",
"i.i.i.i.i.i.i.i.i.i.i.i.i.i.i.i.i.i.i.i.i.i.i.i.i.i.i.i.i.i.i.i.i.i.i.i.i.i.i.i.i.i.i.i.i.i.i.i.i.i.i.i.i.i.i.i.i.i.i.i.i.i.i.i.",
"p.p.p.i.y.y.y.u.y.u.i.i.y.y.u.p.i.u.i.i.r.t.p.a.s.i.y.t.y.i.i.i.p.p.i.y.t.y.u.p.p.i.y.t.t.u.i.a.p.u.y.y.i.i.u.y.u.y.y.y.i.p.p.p.",
"i.t.i.l.Z.F.V.x.a.p.d.v.A.A.v.d.i.i.j.B.F.S.x.t.e.s.b.S.F.B.g.t.r.g.N.F.D.n.d.r.r.k.Z.H.Z.z.p.r.d.v.A.A.v.d.p.a.z.B.F.Z.l.i.y.i.",
"p.u.u.f.x.v.k.s.y.y.p.j.v.v.j.i.a.u.a.j.x.c.h.u.u.p.f.l.z.l.f.p.i.d.j.z.l.h.s.i.u.g.c.c.h.p.i.a.i.j.v.v.j.p.y.y.a.j.c.x.f.i.i.a.",
"u.i.i.u.t.t.y.i.u.i.i.y.r.r.y.p.i.u.p.i.r.r.u.u.p.u.t.r.t.u.i.i.p.i.y.t.r.t.u.i.i.u.y.r.r.y.i.a.p.y.r.r.y.i.i.u.i.y.r.t.u.i.i.u.",
"u.u.i.p.a.a.p.i.a.p.i.u.i.i.i.i.a.u.i.i.u.p.a.i.i.i.p.a.a.p.u.y.u.i.p.a.a.p.i.y.p.i.i.p.a.a.i.t.i.i.i.i.u.i.p.a.i.p.a.a.p.i.u.y.",
"a.p.i.i.i.i.y.t.i.u.u.i.p.a.i.u.a.u.u.u.u.i.p.u.i.i.u.u.u.i.i.i.p.i.u.u.i.i.i.i.p.p.i.i.u.u.i.p.u.i.a.p.i.u.u.i.y.u.i.p.i.i.i.p.",
"i.p.p.i.y.y.p.d.i.p.a.p.u.u.i.a.y.u.d.f.p.u.u.r.u.u.i.p.p.p.i.i.i.i.i.p.a.p.i.u.y.i.p.a.p.i.p.a.a.i.u.u.p.a.p.i.d.p.y.y.i.p.i.u.",
"u.i.p.p.i.i.u.u.u.u.i.p.p.p.p.i.a.u.u.u.y.i.a.p.i.i.i.i.u.u.i.i.p.i.u.u.i.p.i.i.a.p.u.u.i.p.i.i.i.p.p.p.p.i.u.u.u.u.i.i.p.p.i.i.",
"p.i.y.u.p.a.i.y.a.i.u.i.a.a.i.y.i.i.i.i.i.i.p.a.p.i.i.u.u.u.i.p.p.p.i.i.u.u.p.a.p.p.p.i.u.u.i.p.u.p.a.p.u.y.i.a.t.u.a.a.i.u.i.a.",
"t.i.s.a.u.t.i.s.y.p.a.p.y.t.i.d.y.p.s.s.p.u.y.t.y.u.p.a.a.p.u.y.y.u.a.s.a.i.u.y.t.y.i.a.s.s.p.u.p.y.r.t.p.d.s.p.j.s.y.t.u.i.u.t.",
"s.p.i.a.s.s.u.e.a.i.u.i.a.s.p.y.p.u.y.y.i.s.s.s.a.p.u.u.p.a.a.p.a.a.p.i.i.i.i.p.s.s.a.i.y.y.u.p.p.s.f.s.u.t.y.u.w.u.s.d.a.i.p.a.",
"i.t.y.k.Z.J.S.m.e.r.d.M.K.K.M.d.y.p.z.Z.J.D.z.y.t.f.m.F.H.V.h.t.t.h.B.G.F.M.f.r.u.z.S.J.Z.z.a.t.i.v.H.K.B.g.i.y.x.C.H.S.x.i.y.i.",
"i.i.a.d.g.g.s.i.d.s.p.p.s.s.a.i.s.i.u.a.g.h.s.y.i.i.a.d.g.g.a.u.i.a.d.g.f.a.i.u.u.s.g.g.a.i.i.a.s.f.g.d.p.u.i.p.i.s.f.f.s.p.i.p.",
"u.i.p.i.y.t.u.p.w.t.i.p.i.u.i.a.i.i.i.u.t.t.u.i.i.u.y.y.u.i.i.i.i.i.i.u.y.y.u.i.p.u.t.t.u.i.i.i.y.t.t.u.a.a.i.y.a.u.t.t.u.p.i.y.",
"p.i.u.u.u.i.p.a.f.s.i.y.y.y.u.i.y.i.p.p.u.u.i.p.i.i.i.i.i.i.i.i.i.i.p.p.i.i.i.i.p.i.u.i.p.p.i.u.a.p.u.y.y.u.p.s.u.i.p.p.p.i.i.u.",
"u.i.p.p.p.i.u.u.t.u.p.a.a.p.p.i.s.p.u.u.p.a.i.y.i.i.i.i.u.u.i.p.i.p.p.i.i.i.i.p.y.i.s.p.u.y.i.s.i.i.i.p.p.p.i.u.p.p.i.u.i.i.p.p.",
"i.i.i.i.i.i.i.i.i.i.i.i.i.i.i.i.i.i.i.i.i.i.i.i.i.i.i.i.i.i.i.i.i.i.i.i.i.i.i.i.i.i.i.i.i.i.i.i.i.i.i.i.i.i.i.i.i.i.i.i.i.i.i.i.",
"i.i.i.i.i.i.i.i.i.i.i.i.i.i.i.i.i.i.i.i.i.i.i.i.i.i.i.i.i.i.i.i.i.i.i.i.i.i.i.i.i.i.i.i.i.i.i.i.i.i.i.i.i.i.i.i.i.i.i.i.i.i.i.i.",
"i.i.i.i.i.i.i.i.i.i.i.i.i.i.i.i.i.i.i.i.i.i.i.i.i.i.i.i.i.i.i.i.i.i.i.i.i.i.i.i.i.i.i.i.i.i.i.i.i.i.i.i.i.i.i.i.i.i.i.i.i.i.i.i.",
"i.i.i.i.i.i.i.i.i.i.i.i.i.i.i.i.i.i.i.i.i.i.i.i.i.i.i.i.i.i.i.i.i.i.i.i.i.i.i.i.i.i.i.i.i.i.i.i.i.i.i.i.i.i.i.i.i.i.i.i.i.i.i.i.",
"i.i.i.i.i.i.i.i.i.i.i.i.i.i.i.i.i.i.i.i.i.i.i.i.i.i.i.i.i.i.i.i.i.i.i.i.i.i.i.i.i.i.i.i.i.i.i.i.i.i.i.i.i.i.i.i.i.i.i.i.i.i.i.i.",
"i.i.i.i.i.i.i.i.i.i.i.i.i.i.i.i.i.i.i.i.i.i.i.i.i.i.i.i.i.i.i.i.i.i.i.i.i.i.i.i.i.i.i.i.i.i.i.i.i.i.i.i.i.i.i.i.i.i.i.i.i.i.i.i.",
"i.i.i.i.i.i.i.i.i.i.i.i.i.i.i.i.i.i.i.i.i.i.i.i.i.i.i.i.i.i.i.i.i.i.i.i.i.i.i.i.i.i.i.i.i.i.i.i.i.i.i.i.i.i.i.i.i.i.i.i.i.i.i.i.",
"i.i.i.i.i.i.i.i.i.i.i.i.i.i.i.i.i.i.i.i.i.i.i.i.i.i.i.i.i.i.i.i.i.i.i.i.i.i.i.i.i.i.i.i.i.i.i.i.i.i.i.i.i.i.i.i.i.i.i.i.i.i.i.i."
};
