/* XPM */
static char *f481149bf5d54c89b288ff602d53eae5PDH8HsfyzAIIWsMn[] = {
/* columns rows colors chars-per-pixel */
"64 64 159 2 ",
"   c #181518",
".  c #193018",
"X  c #1C3D1B",
"o  c #252625",
"O  c #292629",
"+  c #2D2B2D",
"@  c #2D362D",
"#  c #2B392B",
"$  c #312D31",
"%  c #333333",
"&  c #383637",
"*  c #3E3B3E",
"=  c #1D4C1C",
"-  c #1C551B",
";  c #1D5C1D",
":  c #1F621E",
">  c #1C6B1B",
",  c #1F741E",
"<  c #20641F",
"1  c #20781F",
"2  c #234222",
"3  c #244C24",
"4  c #2B462B",
"5  c #2B4E2B",
"6  c #245524",
"7  c #235D23",
"8  c #2E532D",
"9  c #2C5C2B",
"0  c #324432",
"q  c #344C34",
"w  c #3D453D",
"e  c #3C4C3C",
"r  c #315231",
"t  c #345C33",
"y  c #3C553B",
"u  c #3C583C",
"i  c #236123",
"p  c #246D23",
"a  c #2B642B",
"s  c #2C6B2C",
"d  c #247323",
"f  c #257D24",
"g  c #287827",
"h  c #2E712E",
"j  c #2C7D2C",
"k  c #326432",
"l  c #336B33",
"z  c #3D6D3C",
"x  c #377336",
"c  c #347934",
"v  c #3A7539",
"b  c #3D7A3C",
"n  c #413E41",
"m  c #444444",
"M  c #434C43",
"N  c #494649",
"B  c #4C4C4C",
"V  c #455445",
"C  c #425B42",
"Z  c #4E514E",
"A  c #514E51",
"S  c #545354",
"D  c #575957",
"F  c #585758",
"G  c #5C5B5C",
"H  c #426641",
"J  c #416A41",
"K  c #556055",
"L  c #5F615F",
"P  c #625E62",
"I  c #646364",
"U  c #666A66",
"Y  c #6A666A",
"T  c #6E6E6E",
"R  c #6E716E",
"E  c #736F73",
"W  c #737373",
"Q  c #767976",
"!  c #7C7C7C",
"~  c #029003",
"^  c #0E9E0D",
"/  c #1F831F",
"(  c #149715",
")  c #159A14",
"_  c #189D17",
"`  c #169C18",
"'  c #1A9E19",
"]  c #11A10F",
"[  c #1DA21C",
"{  c #20A51F",
"}  c #248424",
"|  c #288527",
" . c #248B23",
".. c #288A27",
"X. c #2D832D",
"o. c #2C8E2C",
"O. c #249324",
"+. c #249D23",
"@. c #2B942A",
"#. c #2D9B2C",
"$. c #308A30",
"%. c #1FA421",
"&. c #24A423",
"*. c #28A327",
"=. c #24A923",
"-. c #29AC27",
";. c #2BA52A",
":. c #27AD29",
">. c #2EA92D",
",. c #30A62F",
"<. c #30AB2F",
"1. c #2FB22E",
"2. c #2EA930",
"3. c #31A730",
"4. c #33AE32",
"5. c #38AF37",
"6. c #37AF38",
"7. c #35B134",
"8. c #38B237",
"9. c #37B138",
"0. c #3AB239",
"q. c #7F807F",
"w. c #817E81",
"e. c #838383",
"r. c #878887",
"t. c #8B868B",
"y. c #8C8C8C",
"u. c #8F918F",
"i. c #939493",
"p. c #979997",
"a. c #9A979A",
"s. c #9D9D9D",
"d. c #9FA09F",
"f. c #A19FA1",
"g. c #A3A3A3",
"h. c #A7A9A7",
"j. c #ABABAB",
"k. c #AFB0AF",
"l. c #B3B3B3",
"z. c #B6B7B6",
"x. c #B7B8B7",
"c. c #B8BAB8",
"v. c #87C987",
"b. c #8ECC8E",
"n. c #90CD8F",
"m. c #90D28F",
"M. c #91CE90",
"N. c #90D390",
"B. c #93D092",
"V. c #92D491",
"C. c #95D295",
"Z. c #97D597",
"A. c #98D597",
"S. c #97D598",
"D. c #9AD79A",
"F. c #9BD89A",
"G. c #9BD89B",
"H. c #C5E4C5",
"J. c #CCEBCC",
/* pixels */
"J.N.D.D.N.C.D.F.D.A.M.N.D.D.D.A.C.N.A.F.D.D.Z.M.Z.F.D.D.C.M.C.D.F.D.D.N.N.D.D.F.D.N.M.C.A.D.D.Z.M.C.F.F.D.Z.N.N.D.F.D.D.C.C.m.J.",
"V.^ =.{ [ &.=.[ { =.[ [ =.{ [ &.[ [ =.&.[ =.&.[ &.=.{ &.&.[ [ =.&.{ =.[ [ =.&.&.&.[ [ &.&.[ &.&.' [ =.{ &.=.[ [ =.&.{ =.[ { ] V.",
"N.' 0.8.4.8.4.;.4.0.4.8.4.;.<.0.8.8.4.;.;.8.8.0.0.4.;.4.0.0.8.4.;.4.0.4.8.8.;.;.8.8.4.0.>.;.4.0.8.0.4.;.4.0.0.0.7.;.;.8.8.0.=.D.",
"M.' 0.4.<.4.<.>.7.4.4.4.4.>.>.4.4.4.4.<.>.4.4.4.4.<.>.4.4.4.7.<.;.4.4.4.4.4.;.>.7.4.<.7.>.;.7.4.4.7.4.;.<.4.<.7.4.>.4.4.4.8.=.A.",
"D.=.4.*.>.7.7.4.4.;.;.4.4.7.4.;.;.4.7.7.4.>.*.>.4.4.4.4.*.;.4.4.4.4.;.*.4.4.4.4.;.*.>.7.7.7.4.*.;.4.7.4.4.;.;.4.4.4.7.>.*.4.=.D.",
"F.=.4.;.<.7.4.7.4.;.>.4.4.7.7.>.;.4.7.7.7.>.*.4.7.4.7.4.;.>.7.4.7.4.;.;.7.7.4.4.<.;.4.4.4.7.4.;.<.4.7.4.4.;.>.4.4.4.4.>.*.7.=.D.",
"D.=.8.4.4.7.4.4.7.7.4.4.4.4.7.7.4.<.4.7.4.7.4.4.4.7.4.7.4.4.7.4.4.7.7.4.4.4.4.7.4.4.4.4.4.4.7.4.4.4.7.4.4.4.4.4.4.4.4.4.4.4.=.D.",
"F.=.4.<.*.4.7.4.4.4.;.>.7.4.4.4.;.;.7.7.4.7.4.*.4.4.4.7.4.;.;.4.7.7.7.;.;.4.4.7.4.>.*.4.7.4.7.4.*.>.7.4.4.4.;.;.4.4.7.7.>.;.{ D.",
"C.[ 4.4.>.4.4.>.4.7.>.>.7.>.<.7.;.>.4.;.>.4.<.;.4.7.>.<.4.>.>.4.>.>.7.>.>.7.<.>.7.4.;.4.4.;.7.4.>.4.4.>.<.4.>.>.4.>.>.7.4.4.=.F.",
"b._ 8.4.7.7.;.*.>.7.4.4.4.+.} l u x 9 x 9 9 b 5 h d +.<.7.4.4.4.*.>.0.7.4.4.*.;.4.7.7.4.;.*.4.4.7.7.;.+.<.7.4.7.4.*.;.7.7.8.=.D.",
"C.{ 0.>.4.7.<.>.4.>.<.0.7.d # Y a.y.y.i.t.w.r.w.W Z 7 #.7.4.8.4.>.7.4.<.7.4.;.4.4.>.4.7.>.4.7.>.<.7.>.>.7.>.>.7.7.4.4.4.<.7.=.D.",
"D.=.4.*.;.7.4.4.4.*.-.@.6 K i.k.c.c.c.c.c.c.c.j.y.R N 5 / >.7.4.4.4.;.*.4.7.4.7.>.*.<.4.4.4.<.*.;.4.4.7.4.*.*.4.4.7.4.;.*.4.=.D.",
"D.=.7.>.<.4.4.4.7.<.#.5 G s.c.x.z.z.z.z.x.l.p.e.W T R F 0 p #.7.7.7.4.4.4.4.7.7.4.4.4.<.7.4.4.<.4.4.7.4.4.4.4.4.7.7.4.4.>.7.=.F.",
"F.=.0.4.>.<.4.4.7.@.q Q j.c.z.z.c.c.c.z.j.i.Q T T T T R Y A q o.#.4.4.7.<.7.7.7.7.7.>.>.7.4.4.7.>.>.7.4.4.8.4.>.4.4.4.7.<.4.=.D.",
"D.=.4.>.;.<.7.7...q ! z.z.l.z.l.z.z.z.g.e.W R T T T T T R W I M y J l s = = t p ;.>.-.4.4.4.4.4.*.>.8.7.4.<.;.;.4.4.4.4.;.>.&.D.",
"M._ 4.4.4.4.4.-.f N s.h.h.h.h.h.h.j.p.Q T T T T T T T T T T R r.e.I * B Y W t.T C c ..;.1.*.4.4.4.4.<.;.<.4.4.4.4.;.>.4.<.7.&.D.",
"b._ 0.7.7.7.>.-.< B i.p.s.s.s.s.s.s.i.! W T T T T T T T T W q.W G I r.h.c.c.c.z.h.r.S z d O.7.4.4.7.;.*.4.7.4.7.4.*.>.7.4.0.=.D.",
"D.=.4.*.;.4.4.7.p m i.i.p.f.s.s.s.s.s.i.! W T T T T T T T e.e.m i.z.c.c.c.z.z.z.c.c.k.s.W C j -.;.4.7.4.4.;.;.4.7.4.7.4.;.4.=.D.",
"D.=.4.*.>.4.4.7.#.e e.s.s.s.s.s.s.s.s.i.e.! W T T T T T ! h.S I g.h.j.j.l.z.c.c.c.z.l.k.g.! q  .>.>.7.7.>.*.;.<.4.7.4.>.*.4.=.D.",
"A.{ 7.4.7.7.4.7.#.y e.d.s.s.s.p.i.s.s.i.e.e.! W T T W ! s.c.G Q i.p.s.g.g.j.l.l.g.i.e.Q Q R S 9 <.4.7.7.4.4.4.4.4.4.4.4.4.4.=.D.",
"F.=.7.>.;.>.4.7.o.0 e.p.y.i.s.s.s.s.s.i.e.e.e.! W I B S W T m r.s.s.s.s.s.s.p.e.W T T T T T T M d >.4.4.4.4.;.>.4.4.4.4.>.>.{ D.",
"D.&.0.4.;.4.4.7.;.2 Y i.y.p.j.l.l.j.h.i.! e.W B B B B m I I B I T i.g.g.s.s.p.! T T T T T T T Y w f 7.<.<.4.;.>.4.<.4.4.>.>.&.D.",
"b.( 8.7.4.4.>. .l K e.s.j.l.z.c.c.z.z.s.I S B m G Q i.s.j.j.y.Y P T I T p.h.p.e.W T T T T T T R I u O.&.<.7.4.4.4.*.;.7.4.4.=.D.",
"N.[ 8.4.4.7.;.3 P g.l.z.z.c.c.z.z.c.i.G B G Q i.j.l.c.c.z.z.z.l.h.e.S S Y P Q r.Q T T T T T T T R I e g ;.7.<.4.4.;.<.4.<.8.=.D.",
"D.=.4.*.>.3.9 I h.x.z.c.c.z.z.z.z.c.I * e.j.z.z.c.z.z.z.z.z.z.z.c.z.h.i.Q B B G T Q T T T T T W e.s.f.W H d +.7.7.4.4.;.+.4.=.D.",
"D.=.4.;.7.d Z h.x.z.z.z.z.c.z.z.c.e.m Y g.j.l.l.l.z.c.c.z.z.z.z.z.z.c.c.z.s.Q m G Q T T T T e.s.l.x.c.x.f.Q C j 4.4.4.>.;.4.&.A.",
"D.=.0.7.;.5 w.x.z.z.x.c.z.z.z.z.l.B % ! i.p.g.h.j.j.l.z.c.c.c.z.z.z.j.h.g.i.e.I * P W T Q i.j.c.x.x.z.x.c.c.g.Y l 7.7.7.<.4.=.D.",
"D.=.5.7., M h.c.x.x.x.x.z.z.z.j.i.S B y.i.i.s.s.g.g.g.j.l.l.l.h.s.p.r.! ! Q T Y m B W e.g.z.c.z.z.z.z.z.c.l.g.e.V o.7.4.>.;.&.D.",
"C.[ 6.4.6 Y j.j.j.l.x.c.c.z.j.y.e.S S i.i.i.s.s.s.s.s.s.g.s.y.e.Q Q W T T T T W I m I g.g.h.j.z.x.x.x.z.j.r.W R G 9 ;.4.4.4.{ D.",
"M.( 4.4.3 T s.s.g.h.j.l.z.j.y.e.Y m Y i.s.s.s.s.s.s.s.s.s.y.Q T T T T T T T T T T S B ! g.s.s.h.j.l.l.p.Q T T R T M f 7.4.0.=.F.",
"C.%.6.>.a I i.p.s.s.g.g.h.i.e.e.S m e.s.s.s.s.s.f.f.s.s.s.i.! W T T T T T T T T T R S m e.s.i.p.s.s.r.W T T T T R Y q @.>.4.=.D.",
"D.&.4.O.4 E i.i.s.s.s.s.s.i.r.e.m m r.p.i.p.s.s.s.p.s.s.s.i.e.W T T T T T T T T T T T B G i.i.s.g.i.Q T R T T T T R S 3 *.4.=.D.",
"D.=.4.>.k W s.i.p.s.s.g.h.Q B G B S r.i.r.i.p.s.p.i.p.s.p.y.e.Q W T T T T T T T T T T I S S Q h.s.i.Q T T T T T T T T M | 0.&.F.",
"D.=.0.7.j G p.s.s.p.g.e.I B B W r.i.p.p.p.s.g.h.g.p.s.s.p.r.e.! Q T E E T T T T T T T W Y S G T e.i.Q T T R T T T R W G a ;.=.F.",
"F.=.4.>. .V t.d.s.p.Q B S Q s.j.z.z.l.j.l.l.l.l.l.h.s.s.p.r.e.e.Q W T E T T T T T W ! y.s.h.e.I I I I W W T R R T I S n 6 #.[ D.",
"C.[ 7.4.;.k E s.g.! m G p.l.z.z.z.z.c.c.c.c.c.c.z.l.j.g.i.e.e.e.! Q T E T T T W Q r.g.j.z.c.z.h.e.I S B G T I B M # X g #.4.=.D.",
"M.) 8.7.<.j D p.! m G s.z.z.z.z.z.z.z.z.z.z.z.z.z.z.z.h.r.Q ! e.e.Q T T T W Q e.s.j.z.z.z.z.z.c.z.j.e.G B w 5 3 d O.+.7.7.8.-.D.",
"A.&.4.;.>.#.C E B S p.z.z.z.z.z.z.z.z.z.z.z.z.z.z.x.c.g.e.! e.e.e.Q W T W e.i.h.z.c.z.z.z.z.z.z.z.c.z.h.! e d 7.7.7.7.;.*.4.=.Z.",
"A.&.4.*.>.<.l n m e.h.l.z.z.z.z.z.z.c.z.z.z.z.c.x.l.h.y.e.e.e.e.e.! Q Q r.g.l.z.z.z.z.z.z.z.z.z.z.z.l.h.i.P 9 @.4.7.7.;.*.4.=.D.",
"D.=.8.<.7.4.X.% B y.s.g.j.l.z.z.z.z.z.z.z.z.z.l.h.i.! W Q e.e.e.e.e.e.i.s.h.j.j.l.z.z.z.z.z.z.x.z.h.u.! W I e j 7.4.4.4.4.8.=.D.",
"F.=.0.4.>.7.d @ I y.p.s.s.h.l.x.z.z.z.z.z.l.j.i.w.W T T Q ! e.e.e.r.i.s.s.s.f.g.j.l.x.x.z.x.x.k.s.e.W T T T S 8 @.7.4.4.>.>.&.F.",
"Z.&.7.>.;.7.a N e.i.i.p.s.s.h.l.z.c.z.j.h.p.y.e.W T T T W Q e.e.e.i.s.s.s.s.f.s.s.h.j.l.z.l.j.i.Q W T T T R U m s >.4.7.>.;.&.F.",
"b._ 0.4.4.<.l I i.i.i.p.f.s.f.g.j.l.h.i.r.e.e.e.Q E T T T Q e.e.y.p.s.s.s.s.s.p.p.s.s.g.h.p.e.Q T T T T T T T I e 1 -.4.<.4.=.F.",
"M.[ 0.4.7.4.l I p.p.i.p.s.s.s.s.g.s.r.e.e.e.e.e.! W T T T Q e.y.p.s.p.p.s.s.s.i.i.s.s.s.i.! T T T T T T T T T R B 2 | 7.4.0.=.Z.",
"D.=.4.*.>.4.l I p.s.p.s.s.s.s.s.p.y.e.e.e.e.e.e.! Q T T T W e.p.s.a.i.i.p.s.s.i.i.s.s.s.i.Q T T T T T T T T T T U n a ;.*.4.=.A.",
"F.=.4.*.>.,.k I p.s.s.s.s.s.s.s.p.y.e.e.e.e.e.e.e.Q T T T W ! i.p.i.i.i.s.s.p.i.p.s.s.s.i.Q T T T T T T T T T T R L q f ;.4.=.D.",
"D.=.0.4.4.;.l I p.s.s.i.i.s.s.s.i.e.e.e.e.e.e.e.e.Q W T E T W r.p.s.g.g.s.p.i.i.s.f.s.i.e.Q T T T T T T T T T T T T m s 7.4.=.D.",
"D.=.8.4.;.;.l I p.s.s.i.i.p.f.s.y.e.e.e.! ! e.e.e.! Q T E W e.s.j.j.l.k.s.i.i.a.s.g.p.i.r.Q T T T T T T T T T T R T S t O.;.[ D.",
"Z.[ 7.4.;.;.l I p.s.s.s.p.s.s.s.u.e.e.e.! Q e.e.e.e.Q T T ! s.z.c.c.x.z.g.i.s.s.s.s.s.s.i.Q T T T T T T R T T U D Z & 3 @.<.&.D.",
"M.) 4.7.4.;.k I i.i.i.s.s.s.s.s.u.e.e.e.e.e.e.e.e.e.Q W T e.h.z.z.z.z.l.s.y.p.s.s.p.s.s.i.Q T T T T W T I G B & o 2 7 | 7.0.=.F.",
"C.[ 4.>.4.;.k I i.i.i.p.s.s.s.s.y.! ! e.e.e.! ! e.e.! W T ! p.h.j.j.g.p.y.e.i.s.p.i.i.p.i.Q T T T U G N $ # 6 i :  .7.7.4.8.=.D.",
"D.=.4.*.>.;.k I i.p.p.s.s.d.s.p.r.e.e.e.e.! Q Q ! e.! W T Q y.p.g.p.r.e.e.e.u.s.s.p.p.s.y.W Y G m % 4 a ; > O.7.7.7.4.;.*.4.=.D.",
"A.=.7.>.4.3.k A W q.y.i.p.s.g.i.r.e.e.e.e.e.Q Q ! e.e.Q T Q y.p.s.p.y.e.e.! Q W W W Q W I N % o . - f 4.7.4.>.4.4.4.7.4.>.0.=.D.",
"D.=.0.4.>.4.$.4 + m S S Y e.y.r.! Q Q Q Q Q Q W Q Q Q Q I G W y.r.e.e.! T B % r b v v b v s i ; , <.7.>.4.4.<.4.4.4.7.7.4.4.=.D.",
"D.=.0.4.;.>.7.} ; i 6 2 @ * m * * * * * * * * * * * * * $   O m n * n * 0 9 : } 4.;.&.7.7.7.7.7.*.;.4.4.4.4.;.;.4.4.>.4.;.;.=.F.",
"N.' 8.7.>.4.4.-.>.4.#. .p ; ; ; ; i i ; ; i i 7 i 7 ; 7 i - ; i ; 7 i ; , ;.<.;.4.7.4.7.<.;.4.4.4.>.4.>.>.7.4.<.4.;.;.4.4.4.=.D.",
"b.) 8.7.4.7.>.*.>.7.7.7.7.-.4.7.7.7.0.;.-.0.7.7.0.>.-.7.7.7.0.7.&.7.0.7.7.4.*.;.8.7.7.4.;.;.4.7.7.7.<.*.>.7.7.7.4.*.;.7.7.0.=.D.",
"Z.&.4.;.>.7.>.4.7.;.;.4.7.4.0.4.;.4.4.>.4.4.;.4.8.4.>.7.;.>.7.4.4.4.;.*.4.7.>.7.4.;.4.4.4.4.7.;.>.7.7.4.4.;.;.4.7.<.4.<.*.4.=.D.",
"D.=.4.+.;.7.>.4.7.*.;.7.7.4.7.;.*.4.4.4.7.>.*.>.7.4.4.4.*.;.7.4.7.4.*.*.4.4.<.8.>.+.4.4.4.4.4.*.;.4.4.7.4.*.*.4.<.4.7.>.*.4.-.D.",
"D.&.4.4.4.7.4.4.7.4.4.7.4.4.4.4.4.7.7.7.7.4.4.7.7.7.7.7.>.<.7.7.4.4.4.4.4.7.4.4.<.>.7.4.4.4.7.4.7.7.4.4.4.4.4.7.7.4.4.4.4.0.=.A.",
"F.&.0.4.;.2.9.7.4.4.2.;.4.9.4.9.4.>.4.7.4.4.4.;.4.7.4.4.4.>.<.7.7.4.4.>.;.4.7.4.4.4.>.>.4.4.7.4.;.>.7.4.7.7.>.;.4.7.4.4.>.;.&.F.",
"D.&.0.4.;.4.0.6.4.9.2.2.0.0.4.4.4.;.4.4.4.8.7.;.4.8.4.4.0.4.4.0.7.4.7.<.;.4.0.4.4.4.;.4.0.4.8.4.;.4.7.4.8.0.>.;.8.7.4.8.4.3.=.F.",
"v.~ &.=.=.:.%.` %.:.&.&.=.( ' =.=.&.=.' _ =.=.&.=.[ ) &.=.=.&.{ ) [ =.=.=.&._ _ &.=.{ =.[ ( =.&.=.=.[ ) { =.&.=.&._ ' =.=.-.] N.",
"H.v.D.D.F.F.C.M.S.F.F.F.D.b.C.D.D.D.D.N.M.D.D.F.D.N.n.Z.A.F.D.Z.M.C.D.D.F.A.M.N.D.D.D.D.N.b.D.D.F.F.C.M.Z.D.D.D.Z.M.N.D.D.F.N.J."
};
